<svg xmlns="http://www.w3.org/2000/svg" xmlns:xlink="http://www.w3.org/1999/xlink" width="250" zoomAndPan="magnify" viewBox="0 0 187.5 187.499992" height="250" preserveAspectRatio="xMidYMid meet" version="1.0"><defs><g/><clipPath id="5f9a5f4e66"><path d="M 34.152344 6.421875 L 153.402344 6.421875 L 153.402344 120.421875 L 34.152344 120.421875 Z M 34.152344 6.421875 " clip-rule="nonzero"/></clipPath></defs><g clip-path="url(#5f9a5f4e66)"><path fill="#262730" d="M 145.753906 52.976562 C 128.648438 41.230469 111.546875 29.476562 94.457031 17.714844 C 94.207031 17.542969 93.945312 17.386719 93.710938 17.238281 C 93.550781 17.339844 93.441406 17.402344 93.339844 17.46875 C 76.039062 29.371094 58.734375 41.265625 41.425781 53.15625 C 41.207031 53.296875 41.039062 53.488281 40.929688 53.726562 C 40.816406 53.964844 40.777344 54.214844 40.808594 54.476562 C 40.828125 72.839844 40.84375 91.207031 40.851562 109.570312 C 40.851562 109.898438 40.890625 110.226562 40.914062 110.5625 L 57.007812 110.5625 L 57.007812 73.125 L 55.964844 73.125 C 53.515625 73.125 51.070312 73.160156 48.625 73.109375 C 48.265625 73.136719 47.925781 73.070312 47.601562 72.90625 C 47.28125 72.746094 47.023438 72.515625 46.828125 72.210938 C 46.632812 71.910156 46.527344 71.578125 46.515625 71.214844 C 46.503906 70.855469 46.585938 70.519531 46.757812 70.203125 C 48.523438 66.175781 50.328125 62.164062 52.117188 58.148438 C 52.277344 57.730469 52.546875 57.398438 52.921875 57.152344 C 53.296875 56.90625 53.710938 56.796875 54.15625 56.820312 C 57.441406 56.824219 60.726562 56.824219 64.007812 56.820312 C 64.457031 56.796875 64.867188 56.90625 65.242188 57.152344 C 65.617188 57.398438 65.882812 57.734375 66.039062 58.152344 C 67.785156 62.085938 69.539062 66.015625 71.28125 69.953125 C 72.085938 71.777344 71.230469 73.097656 69.230469 73.121094 C 66.878906 73.140625 64.523438 73.167969 62.167969 73.105469 C 61.296875 73.085938 61.089844 73.355469 61.09375 74.199219 C 61.121094 85.988281 61.125 97.777344 61.113281 109.5625 C 61.113281 109.890625 61.152344 110.21875 61.175781 110.613281 C 66.101562 110.613281 70.925781 110.613281 75.753906 110.597656 C 75.988281 110.558594 76.160156 110.429688 76.261719 110.210938 C 76.855469 108.296875 77.410156 106.371094 77.988281 104.421875 C 77.734375 104.3125 77.570312 104.226562 77.402344 104.164062 C 76.480469 103.839844 75.632812 103.382812 74.859375 102.789062 C 74.082031 102.199219 73.417969 101.5 72.863281 100.699219 C 72.304688 99.894531 71.886719 99.023438 71.605469 98.089844 C 71.324219 97.15625 71.195312 96.199219 71.214844 95.222656 C 71.214844 92.523438 71.183594 89.824219 71.238281 87.125 C 71.261719 86.441406 71.425781 85.792969 71.730469 85.179688 C 71.910156 84.804688 72.140625 84.46875 72.421875 84.164062 C 72.703125 83.859375 73.023438 83.605469 73.382812 83.398438 C 73.742188 83.191406 74.125 83.039062 74.527344 82.949219 C 74.929688 82.855469 75.339844 82.824219 75.753906 82.855469 C 77.136719 82.871094 78.523438 82.855469 79.972656 82.855469 C 79.972656 80.441406 79.972656 78.152344 79.972656 75.859375 C 79.972656 72.363281 82.074219 70.226562 85.5625 70.21875 C 91.015625 70.203125 96.464844 70.203125 101.917969 70.21875 C 102.289062 70.1875 102.660156 70.199219 103.03125 70.25 C 103.402344 70.300781 103.761719 70.390625 104.113281 70.519531 C 104.464844 70.652344 104.796875 70.816406 105.113281 71.019531 C 105.425781 71.222656 105.714844 71.457031 105.980469 71.722656 C 106.242188 71.988281 106.476562 72.277344 106.675781 72.59375 C 106.878906 72.910156 107.042969 73.242188 107.171875 73.59375 C 107.300781 73.945312 107.386719 74.308594 107.4375 74.679688 C 107.488281 75.050781 107.496094 75.421875 107.464844 75.796875 L 107.464844 82.882812 C 109.089844 82.882812 110.632812 82.824219 112.171875 82.894531 C 112.445312 82.902344 112.714844 82.9375 112.976562 82.996094 C 113.242188 83.054688 113.5 83.140625 113.75 83.25 C 113.996094 83.363281 114.234375 83.496094 114.457031 83.652344 C 114.675781 83.808594 114.882812 83.984375 115.070312 84.183594 C 115.257812 84.378906 115.425781 84.59375 115.570312 84.824219 C 115.714844 85.054688 115.835938 85.296875 115.9375 85.550781 C 116.035156 85.804688 116.105469 86.0625 116.152344 86.332031 C 116.199219 86.601562 116.222656 86.871094 116.214844 87.144531 C 116.222656 89.933594 116.253906 92.726562 116.207031 95.519531 C 116.210938 96.273438 116.121094 97.019531 115.9375 97.753906 C 115.753906 98.488281 115.484375 99.1875 115.121094 99.851562 C 114.761719 100.515625 114.324219 101.125 113.8125 101.679688 C 113.296875 102.234375 112.722656 102.71875 112.085938 103.125 C 111.246094 103.628906 110.375 104.082031 109.476562 104.476562 C 109.992188 106.253906 110.535156 108.054688 111.03125 109.871094 C 111.046875 109.988281 111.085938 110.101562 111.148438 110.207031 C 111.210938 110.308594 111.289062 110.398438 111.390625 110.46875 C 111.488281 110.539062 111.59375 110.589844 111.714844 110.617188 C 111.832031 110.644531 111.949219 110.648438 112.070312 110.625 C 115.972656 110.597656 119.875 110.613281 123.777344 110.609375 C 124.019531 110.609375 124.261719 110.578125 124.589844 110.554688 C 124.535156 110.238281 124.5 109.96875 124.445312 109.703125 C 123.15625 103.867188 121.863281 98.03125 120.574219 92.195312 C 120.492188 91.921875 120.46875 91.644531 120.507812 91.367188 C 120.546875 91.085938 120.644531 90.824219 120.796875 90.585938 C 120.949219 90.347656 121.148438 90.152344 121.386719 90 C 121.625 89.851562 121.886719 89.753906 122.167969 89.71875 C 122.660156 89.644531 123.152344 89.613281 123.652344 89.625 C 124.808594 89.613281 125.96875 89.625 127.160156 89.625 C 126.695312 85.492188 125.691406 81.492188 124.160156 77.621094 C 124.0625 77.359375 123.886719 77.175781 123.628906 77.066406 C 121.03125 76.5 119.558594 74.664062 118.546875 72.425781 C 117.230469 69.515625 116.710938 66.492188 118.109375 63.4375 C 119.03125 61.425781 119.953125 61.070312 122.058594 61.742188 C 122.324219 61.832031 122.578125 61.941406 122.820312 62.078125 C 124.308594 62.867188 125.5625 63.933594 126.578125 65.273438 C 127.597656 66.613281 128.289062 68.109375 128.648438 69.753906 C 128.949219 70.683594 129.039062 71.636719 128.917969 72.605469 C 128.792969 73.578125 128.472656 74.476562 127.949219 75.304688 C 127.835938 75.585938 127.835938 75.867188 127.949219 76.148438 C 128.386719 77.503906 128.929688 78.828125 129.324219 80.1875 C 129.851562 81.996094 130.28125 83.832031 130.785156 85.78125 C 131.082031 84.515625 131.386719 83.378906 131.59375 82.222656 C 131.613281 81.8125 131.550781 81.414062 131.40625 81.03125 C 130.996094 80.011719 130.707031 78.953125 130.542969 77.867188 C 130.53125 76.34375 130.828125 74.878906 131.433594 73.480469 C 132.035156 72.082031 132.894531 70.863281 134.007812 69.828125 C 135.191406 68.519531 136.644531 67.695312 138.367188 67.347656 C 138.59375 67.277344 138.824219 67.25 139.058594 67.257812 C 139.296875 67.269531 139.523438 67.320312 139.738281 67.414062 C 139.957031 67.503906 140.152344 67.628906 140.328125 67.792969 C 140.5 67.953125 140.640625 68.136719 140.746094 68.347656 C 141.289062 69.21875 141.671875 70.15625 141.894531 71.15625 C 142.054688 72.019531 142.113281 72.894531 142.070312 73.773438 C 142.027344 74.652344 141.882812 75.511719 141.644531 76.359375 C 141.402344 77.207031 141.066406 78.011719 140.640625 78.78125 C 140.214844 79.550781 139.707031 80.261719 139.113281 80.914062 C 138.488281 81.664062 137.71875 82.207031 136.800781 82.542969 C 136.347656 82.648438 135.972656 82.878906 135.679688 83.238281 C 135.382812 83.597656 135.226562 84.011719 135.210938 84.476562 C 134.941406 86.167969 134.636719 87.851562 134.328125 89.625 C 136.398438 89.625 138.253906 89.605469 140.105469 89.632812 C 140.28125 89.613281 140.457031 89.613281 140.632812 89.636719 C 140.804688 89.660156 140.976562 89.703125 141.140625 89.769531 C 141.300781 89.839844 141.453125 89.925781 141.59375 90.03125 C 141.738281 90.136719 141.863281 90.261719 141.972656 90.398438 C 142.082031 90.539062 142.171875 90.6875 142.242188 90.847656 C 142.3125 91.011719 142.363281 91.179688 142.390625 91.355469 C 142.417969 91.527344 142.421875 91.703125 142.40625 91.878906 C 142.386719 92.054688 142.347656 92.226562 142.285156 92.394531 C 141.296875 96.867188 140.308594 101.34375 139.316406 105.824219 C 138.972656 107.386719 138.640625 108.953125 138.296875 110.546875 L 146.597656 110.546875 L 146.597656 109.464844 C 146.597656 91.160156 146.605469 72.855469 146.617188 54.554688 C 146.636719 54.230469 146.570312 53.925781 146.414062 53.640625 C 146.257812 53.355469 146.039062 53.136719 145.753906 52.976562 Z M 116.769531 64.519531 C 116.769531 66.25 116.085938 66.988281 114.378906 66.992188 C 101.5 67 88.621094 67 75.742188 66.992188 C 74.082031 66.992188 73.386719 66.253906 73.386719 64.589844 C 73.382812 56.277344 73.382812 47.96875 73.386719 39.660156 C 73.386719 38.011719 74.109375 37.289062 75.769531 37.285156 C 82.207031 37.28125 88.648438 37.28125 95.085938 37.285156 C 101.433594 37.285156 107.78125 37.285156 114.128906 37.285156 C 116.140625 37.285156 116.769531 37.929688 116.769531 39.96875 C 116.769531 48.152344 116.769531 56.335938 116.769531 64.519531 Z M 153.105469 53.09375 C 152.628906 52.78125 152.300781 52.578125 151.984375 52.359375 L 95.566406 13.550781 C 93.917969 12.417969 93.535156 12.414062 91.90625 13.535156 C 73.070312 26.488281 54.238281 39.441406 35.40625 52.390625 C 35.113281 52.59375 34.808594 52.785156 34.367188 53.078125 C 34.367188 50.917969 34.339844 48.945312 34.398438 46.972656 C 34.40625 46.703125 34.800781 46.390625 35.085938 46.199219 C 42.992188 40.804688 50.902344 35.417969 58.816406 30.035156 C 70.160156 22.324219 81.5 14.601562 92.835938 6.871094 C 92.957031 6.761719 93.09375 6.675781 93.246094 6.617188 C 93.398438 6.558594 93.558594 6.527344 93.722656 6.527344 C 93.886719 6.527344 94.042969 6.558594 94.195312 6.617188 C 94.351562 6.675781 94.488281 6.761719 94.609375 6.871094 C 113.824219 19.976562 133.054688 33.058594 152.300781 46.121094 C 152.582031 46.28125 152.796875 46.503906 152.945312 46.792969 C 153.09375 47.082031 153.152344 47.386719 153.121094 47.710938 C 153.070312 49.4375 153.105469 51.164062 153.105469 53.09375 Z M 36.539062 114.734375 L 150.941406 114.734375 L 150.941406 120.40625 L 36.539062 120.40625 Z M 106.273438 100.757812 C 99.464844 100.722656 92.652344 100.757812 85.84375 100.742188 C 83.863281 100.742188 81.875 100.777344 79.90625 100.617188 C 79.277344 100.554688 78.679688 100.378906 78.113281 100.09375 C 77.546875 99.808594 77.050781 99.429688 76.625 98.960938 C 76.199219 98.488281 75.871094 97.957031 75.640625 97.367188 C 75.414062 96.777344 75.296875 96.164062 75.292969 95.527344 C 75.277344 92.707031 75.292969 89.890625 75.292969 86.988281 L 79.976562 86.988281 L 79.976562 90.78125 C 79.976562 91.710938 79.96875 92.636719 79.976562 93.574219 C 79.953125 93.734375 79.949219 93.898438 79.964844 94.0625 C 79.980469 94.226562 80.015625 94.386719 80.066406 94.542969 C 80.121094 94.699219 80.191406 94.847656 80.277344 94.984375 C 80.363281 95.125 80.464844 95.253906 80.582031 95.367188 C 80.699219 95.484375 80.828125 95.585938 80.96875 95.671875 C 81.109375 95.757812 81.257812 95.824219 81.410156 95.875 C 81.566406 95.929688 81.726562 95.960938 81.890625 95.976562 C 82.054688 95.988281 82.21875 95.984375 82.378906 95.960938 C 83.898438 95.972656 85.414062 95.960938 86.933594 95.960938 C 92.90625 95.960938 98.882812 95.960938 104.855469 95.960938 C 106.773438 95.960938 107.464844 95.253906 107.46875 93.3125 C 107.46875 91.238281 107.46875 89.164062 107.46875 86.957031 L 111.972656 86.957031 C 112.027344 87.03125 112.097656 87.074219 112.097656 87.121094 C 112.105469 90.160156 112.25 93.203125 112.066406 96.226562 C 111.9375 98.285156 110.066406 100.773438 106.277344 100.757812 Z M 103.390625 85.433594 L 84.050781 85.433594 L 84.050781 76.578125 C 84.050781 74.332031 84.128906 74.261719 86.414062 74.257812 C 91.457031 74.257812 96.5 74.257812 101.542969 74.257812 C 103.140625 74.257812 103.390625 74.503906 103.390625 76.066406 C 103.390625 79.164062 103.390625 82.261719 103.390625 85.433594 Z M 125.148438 93.765625 L 137.839844 93.765625 C 137.363281 95.941406 136.90625 98.054688 136.4375 100.167969 C 135.746094 103.308594 135.023438 106.445312 134.375 109.597656 C 134.203125 110.4375 133.855469 110.6875 133.019531 110.636719 C 131.820312 110.558594 130.609375 110.648438 129.402344 110.589844 C 129.0625 110.523438 128.824219 110.328125 128.6875 110.007812 C 127.488281 104.730469 126.320312 99.445312 125.152344 94.15625 C 125.136719 94.027344 125.136719 93.898438 125.148438 93.765625 Z M 105.613281 105.640625 C 106.027344 107.253906 106.523438 108.839844 107.027344 110.582031 L 80.425781 110.582031 C 80.707031 109.609375 80.949219 108.699219 81.226562 107.800781 C 81.539062 106.804688 81.601562 105.464844 82.285156 104.933594 C 82.929688 104.429688 84.242188 104.761719 85.257812 104.761719 C 91.636719 104.761719 98.015625 104.773438 104.394531 104.742188 C 105.117188 104.738281 105.433594 104.945312 105.613281 105.640625 Z M 66.453125 69.042969 L 51.742188 69.042969 C 51.894531 68.65625 52.015625 68.320312 52.160156 68 C 53.101562 65.882812 54.070312 63.773438 54.984375 61.644531 C 55.050781 61.386719 55.191406 61.183594 55.414062 61.03125 C 55.632812 60.878906 55.875 60.820312 56.136719 60.847656 C 58.113281 60.894531 60.09375 60.84375 62.074219 60.886719 C 62.460938 60.902344 62.773438 61.0625 63.007812 61.375 C 64.167969 63.863281 65.269531 66.382812 66.453125 69.042969 Z M 84.117188 91.8125 L 84.117188 89.660156 L 103.355469 89.660156 L 103.355469 91.8125 Z M 121.492188 66.191406 C 123.625 66.769531 125.644531 71.4375 124.457031 73.089844 C 122.539062 72.554688 120.980469 68.796875 121.492188 66.191406 Z M 134.878906 78.925781 C 133.761719 77.367188 135.609375 73.160156 137.867188 71.953125 C 138.542969 74.640625 136.652344 78.816406 134.878906 78.925781 Z M 86.671875 50.703125 C 88.757812 52.144531 90.890625 53.523438 92.984375 54.960938 C 93.171875 55.121094 93.390625 55.207031 93.632812 55.222656 C 93.878906 55.238281 94.105469 55.183594 94.316406 55.050781 C 97.28125 53.585938 100.285156 52.195312 103.242188 50.714844 C 103.742188 50.421875 104.28125 50.269531 104.859375 50.246094 C 105.4375 50.226562 105.984375 50.34375 106.503906 50.597656 C 108.269531 51.414062 110.101562 52.097656 111.898438 52.835938 C 112.132812 52.929688 112.382812 52.996094 112.664062 53.085938 L 112.664062 41.40625 L 77.472656 41.40625 L 77.472656 53.15625 C 79.730469 52.230469 81.902344 51.363281 84.054688 50.449219 C 84.480469 50.238281 84.929688 50.160156 85.398438 50.203125 C 85.871094 50.25 86.296875 50.417969 86.671875 50.703125 Z M 95.035156 42.394531 C 95.394531 42.394531 95.75 42.425781 96.101562 42.492188 C 96.453125 42.5625 96.796875 42.664062 97.128906 42.796875 C 97.460938 42.933594 97.777344 43.101562 98.078125 43.300781 C 98.378906 43.496094 98.65625 43.722656 98.910156 43.976562 C 99.167969 44.226562 99.394531 44.503906 99.597656 44.800781 C 99.796875 45.101562 99.96875 45.414062 100.105469 45.746094 C 100.246094 46.078125 100.351562 46.421875 100.421875 46.773438 C 100.496094 47.125 100.53125 47.480469 100.53125 47.839844 C 100.535156 48.199219 100.5 48.558594 100.433594 48.910156 C 100.363281 49.261719 100.261719 49.605469 100.125 49.9375 C 99.988281 50.273438 99.820312 50.589844 99.625 50.886719 C 99.425781 51.1875 99.199219 51.464844 98.945312 51.71875 C 98.691406 51.976562 98.417969 52.203125 98.117188 52.402344 C 97.820312 52.605469 97.507812 52.773438 97.175781 52.914062 C 96.84375 53.050781 96.5 53.15625 96.148438 53.226562 C 95.796875 53.296875 95.441406 53.332031 95.082031 53.335938 C 94.722656 53.335938 94.367188 53.300781 94.015625 53.230469 C 93.664062 53.160156 93.320312 53.058594 92.988281 52.921875 C 92.65625 52.785156 92.339844 52.613281 92.042969 52.414062 C 91.742188 52.214844 91.464844 51.988281 91.210938 51.734375 C 90.957031 51.480469 90.730469 51.203125 90.53125 50.90625 C 90.332031 50.605469 90.164062 50.289062 90.027344 49.957031 C 89.890625 49.625 89.785156 49.28125 89.714844 48.929688 C 89.644531 48.578125 89.609375 48.21875 89.609375 47.859375 C 89.617188 47.503906 89.65625 47.152344 89.726562 46.804688 C 89.800781 46.457031 89.90625 46.117188 90.042969 45.789062 C 90.179688 45.460938 90.347656 45.148438 90.546875 44.851562 C 90.746094 44.558594 90.96875 44.28125 91.21875 44.03125 C 91.46875 43.777344 91.742188 43.550781 92.035156 43.351562 C 92.332031 43.152344 92.640625 42.980469 92.96875 42.839844 C 93.296875 42.703125 93.632812 42.59375 93.980469 42.519531 C 94.328125 42.445312 94.679688 42.402344 95.035156 42.394531 Z M 97.191406 62.65625 C 97.238281 62.6875 97.253906 62.757812 97.351562 62.917969 L 77.433594 62.917969 C 77.433594 61.195312 77.417969 59.5 77.453125 57.808594 C 77.453125 57.652344 77.75 57.441406 77.953125 57.355469 C 80.144531 56.433594 82.347656 55.53125 84.558594 54.640625 C 84.816406 54.550781 85.066406 54.566406 85.308594 54.695312 C 89.277344 57.335938 93.238281 59.988281 97.191406 62.65625 Z M 112.671875 57.917969 C 112.71875 59.554688 112.699219 61.191406 112.699219 62.949219 C 110.101562 62.949219 107.660156 62.949219 105.21875 62.9375 C 105 62.925781 104.800781 62.855469 104.621094 62.726562 C 102.304688 61.1875 99.996094 59.636719 97.554688 58 C 98.621094 57.472656 99.578125 57 100.542969 56.53125 C 101.820312 55.910156 103.09375 55.265625 104.394531 54.699219 C 104.789062 54.535156 105.1875 54.515625 105.59375 54.648438 C 107.785156 55.496094 109.957031 56.402344 112.117188 57.320312 C 112.351562 57.417969 112.667969 57.710938 112.671875 57.917969 Z M 93.683594 47.847656 C 93.6875 47.667969 93.722656 47.496094 93.789062 47.332031 C 93.855469 47.164062 93.953125 47.019531 94.078125 46.890625 C 94.203125 46.761719 94.34375 46.660156 94.507812 46.585938 C 94.671875 46.515625 94.84375 46.472656 95.019531 46.46875 C 95.207031 46.464844 95.386719 46.496094 95.5625 46.566406 C 95.734375 46.632812 95.890625 46.730469 96.027344 46.855469 C 96.164062 46.984375 96.269531 47.132812 96.347656 47.300781 C 96.425781 47.472656 96.472656 47.648438 96.480469 47.835938 C 96.484375 48.023438 96.449219 48.199219 96.378906 48.375 C 96.308594 48.546875 96.207031 48.699219 96.074219 48.832031 C 95.945312 48.960938 95.792969 49.066406 95.621094 49.136719 C 95.449219 49.210938 95.273438 49.246094 95.085938 49.246094 C 94.898438 49.253906 94.71875 49.222656 94.542969 49.152344 C 94.371094 49.085938 94.214844 48.984375 94.082031 48.851562 C 93.949219 48.71875 93.851562 48.566406 93.78125 48.390625 C 93.710938 48.21875 93.679688 48.039062 93.683594 47.851562 Z M 93.683594 47.847656 " fill-opacity="1" fill-rule="nonzero"/></g><g fill="#262730" fill-opacity="1"><g transform="translate(17.077822, 177.88829)"><g><path d="M 0.671875 0 L 0.671875 -6.375 L 2.921875 -6.375 C 3.367188 -6.375 3.738281 -6.300781 4.03125 -6.15625 C 4.320312 -6.019531 4.539062 -5.828125 4.6875 -5.578125 C 4.832031 -5.328125 4.90625 -5.050781 4.90625 -4.75 C 4.90625 -4.34375 4.796875 -4.019531 4.578125 -3.78125 C 4.359375 -3.539062 4.09375 -3.375 3.78125 -3.28125 C 4.019531 -3.238281 4.234375 -3.144531 4.421875 -3 C 4.617188 -2.851562 4.773438 -2.671875 4.890625 -2.453125 C 5.003906 -2.234375 5.0625 -1.992188 5.0625 -1.734375 C 5.0625 -1.410156 4.976562 -1.117188 4.8125 -0.859375 C 4.65625 -0.597656 4.421875 -0.390625 4.109375 -0.234375 C 3.804688 -0.078125 3.429688 0 2.984375 0 Z M 1.4375 -3.59375 L 2.859375 -3.59375 C 3.265625 -3.59375 3.578125 -3.6875 3.796875 -3.875 C 4.015625 -4.0625 4.125 -4.328125 4.125 -4.671875 C 4.125 -4.992188 4.015625 -5.25 3.796875 -5.4375 C 3.585938 -5.632812 3.265625 -5.734375 2.828125 -5.734375 L 1.4375 -5.734375 Z M 1.4375 -0.640625 L 2.90625 -0.640625 C 3.34375 -0.640625 3.675781 -0.738281 3.90625 -0.9375 C 4.144531 -1.144531 4.265625 -1.429688 4.265625 -1.796875 C 4.265625 -2.148438 4.140625 -2.4375 3.890625 -2.65625 C 3.648438 -2.875 3.316406 -2.984375 2.890625 -2.984375 L 1.4375 -2.984375 Z M 1.4375 -0.640625 "/></g></g></g><g fill="#262730" fill-opacity="1"><g transform="translate(23.112561, 177.88829)"><g><path d="M 0.671875 0 L 0.671875 -6.375 L 4.625 -6.375 L 4.625 -5.75 L 1.4375 -5.75 L 1.4375 -3.53125 L 4.34375 -3.53125 L 4.34375 -2.90625 L 1.4375 -2.90625 L 1.4375 -0.625 L 4.625 -0.625 L 4.625 0 Z M 0.671875 0 "/></g></g></g><g fill="#262730" fill-opacity="1"><g transform="translate(28.800907, 177.88829)"><g><path d="M 2.703125 0.109375 C 2.234375 0.109375 1.828125 0.0234375 1.484375 -0.140625 C 1.140625 -0.316406 0.875 -0.554688 0.6875 -0.859375 C 0.5 -1.160156 0.40625 -1.507812 0.40625 -1.90625 L 1.203125 -1.90625 C 1.203125 -1.664062 1.257812 -1.4375 1.375 -1.21875 C 1.488281 -1.007812 1.65625 -0.84375 1.875 -0.71875 C 2.101562 -0.59375 2.378906 -0.53125 2.703125 -0.53125 C 3.140625 -0.53125 3.472656 -0.632812 3.703125 -0.84375 C 3.941406 -1.050781 4.0625 -1.3125 4.0625 -1.625 C 4.0625 -1.875 4.003906 -2.078125 3.890625 -2.234375 C 3.785156 -2.390625 3.640625 -2.515625 3.453125 -2.609375 C 3.265625 -2.710938 3.050781 -2.800781 2.8125 -2.875 C 2.570312 -2.945312 2.320312 -3.023438 2.0625 -3.109375 C 1.570312 -3.285156 1.207031 -3.5 0.96875 -3.75 C 0.738281 -4 0.625 -4.328125 0.625 -4.734375 C 0.613281 -5.078125 0.691406 -5.378906 0.859375 -5.640625 C 1.023438 -5.910156 1.253906 -6.117188 1.546875 -6.265625 C 1.847656 -6.410156 2.207031 -6.484375 2.625 -6.484375 C 3.03125 -6.484375 3.382812 -6.40625 3.6875 -6.25 C 3.988281 -6.101562 4.222656 -5.894531 4.390625 -5.625 C 4.554688 -5.363281 4.640625 -5.0625 4.640625 -4.71875 L 3.84375 -4.71875 C 3.84375 -4.894531 3.796875 -5.066406 3.703125 -5.234375 C 3.617188 -5.410156 3.484375 -5.550781 3.296875 -5.65625 C 3.109375 -5.769531 2.875 -5.828125 2.59375 -5.828125 C 2.25 -5.835938 1.960938 -5.75 1.734375 -5.5625 C 1.515625 -5.382812 1.40625 -5.132812 1.40625 -4.8125 C 1.40625 -4.539062 1.484375 -4.332031 1.640625 -4.1875 C 1.796875 -4.039062 2.015625 -3.921875 2.296875 -3.828125 C 2.578125 -3.734375 2.898438 -3.625 3.265625 -3.5 C 3.566406 -3.382812 3.835938 -3.253906 4.078125 -3.109375 C 4.328125 -2.960938 4.519531 -2.773438 4.65625 -2.546875 C 4.789062 -2.316406 4.859375 -2.023438 4.859375 -1.671875 C 4.859375 -1.367188 4.773438 -1.082031 4.609375 -0.8125 C 4.453125 -0.539062 4.210938 -0.316406 3.890625 -0.140625 C 3.578125 0.0234375 3.179688 0.109375 2.703125 0.109375 Z M 2.703125 0.109375 "/></g></g></g><g fill="#262730" fill-opacity="1"><g transform="translate(34.616876, 177.88829)"><g><path d="M 2.171875 0 L 2.171875 -5.75 L 0.265625 -5.75 L 0.265625 -6.375 L 4.84375 -6.375 L 4.84375 -5.75 L 2.9375 -5.75 L 2.9375 0 Z M 2.171875 0 "/></g></g></g><g fill="#262730" fill-opacity="1"><g transform="translate(40.268767, 177.88829)"><g/></g></g><g fill="#262730" fill-opacity="1"><g transform="translate(43.231551, 177.88829)"><g><path d="M 0.671875 0 L 0.671875 -6.375 L 2.921875 -6.375 C 3.367188 -6.375 3.738281 -6.300781 4.03125 -6.15625 C 4.320312 -6.019531 4.539062 -5.828125 4.6875 -5.578125 C 4.832031 -5.328125 4.90625 -5.050781 4.90625 -4.75 C 4.90625 -4.34375 4.796875 -4.019531 4.578125 -3.78125 C 4.359375 -3.539062 4.09375 -3.375 3.78125 -3.28125 C 4.019531 -3.238281 4.234375 -3.144531 4.421875 -3 C 4.617188 -2.851562 4.773438 -2.671875 4.890625 -2.453125 C 5.003906 -2.234375 5.0625 -1.992188 5.0625 -1.734375 C 5.0625 -1.410156 4.976562 -1.117188 4.8125 -0.859375 C 4.65625 -0.597656 4.421875 -0.390625 4.109375 -0.234375 C 3.804688 -0.078125 3.429688 0 2.984375 0 Z M 1.4375 -3.59375 L 2.859375 -3.59375 C 3.265625 -3.59375 3.578125 -3.6875 3.796875 -3.875 C 4.015625 -4.0625 4.125 -4.328125 4.125 -4.671875 C 4.125 -4.992188 4.015625 -5.25 3.796875 -5.4375 C 3.585938 -5.632812 3.265625 -5.734375 2.828125 -5.734375 L 1.4375 -5.734375 Z M 1.4375 -0.640625 L 2.90625 -0.640625 C 3.34375 -0.640625 3.675781 -0.738281 3.90625 -0.9375 C 4.144531 -1.144531 4.265625 -1.429688 4.265625 -1.796875 C 4.265625 -2.148438 4.140625 -2.4375 3.890625 -2.65625 C 3.648438 -2.875 3.316406 -2.984375 2.890625 -2.984375 L 1.4375 -2.984375 Z M 1.4375 -0.640625 "/></g></g></g><g fill="#262730" fill-opacity="1"><g transform="translate(49.26629, 177.88829)"><g><path d="M 2.984375 0.109375 C 2.546875 0.109375 2.144531 0.0234375 1.78125 -0.140625 C 1.425781 -0.316406 1.144531 -0.585938 0.9375 -0.953125 C 0.726562 -1.316406 0.625 -1.78125 0.625 -2.34375 L 0.625 -6.375 L 1.390625 -6.375 L 1.390625 -2.34375 C 1.390625 -1.71875 1.535156 -1.265625 1.828125 -0.984375 C 2.128906 -0.710938 2.519531 -0.578125 3 -0.578125 C 3.476562 -0.578125 3.863281 -0.710938 4.15625 -0.984375 C 4.445312 -1.265625 4.59375 -1.71875 4.59375 -2.34375 L 4.59375 -6.375 L 5.359375 -6.375 L 5.359375 -2.34375 C 5.359375 -1.78125 5.25 -1.316406 5.03125 -0.953125 C 4.820312 -0.585938 4.535156 -0.316406 4.171875 -0.140625 C 3.816406 0.0234375 3.421875 0.109375 2.984375 0.109375 Z M 2.984375 0.109375 "/></g></g></g><g fill="#262730" fill-opacity="1"><g transform="translate(55.793278, 177.88829)"><g><path d="M 0.671875 0 L 0.671875 -6.375 L 2.625 -6.375 C 3.75 -6.375 4.578125 -6.085938 5.109375 -5.515625 C 5.640625 -4.941406 5.90625 -4.160156 5.90625 -3.171875 C 5.90625 -2.191406 5.640625 -1.414062 5.109375 -0.84375 C 4.578125 -0.28125 3.75 0 2.625 0 Z M 1.4375 -0.640625 L 2.609375 -0.640625 C 3.234375 -0.640625 3.726562 -0.738281 4.09375 -0.9375 C 4.457031 -1.144531 4.71875 -1.4375 4.875 -1.8125 C 5.039062 -2.195312 5.125 -2.648438 5.125 -3.171875 C 5.125 -3.703125 5.039062 -4.160156 4.875 -4.546875 C 4.71875 -4.929688 4.457031 -5.222656 4.09375 -5.421875 C 3.726562 -5.628906 3.234375 -5.734375 2.609375 -5.734375 L 1.4375 -5.734375 Z M 1.4375 -0.640625 "/></g></g></g><g fill="#262730" fill-opacity="1"><g transform="translate(62.684885, 177.88829)"><g><path d="M 0.671875 0 L 0.671875 -6.375 L 2.625 -6.375 C 3.75 -6.375 4.578125 -6.085938 5.109375 -5.515625 C 5.640625 -4.941406 5.90625 -4.160156 5.90625 -3.171875 C 5.90625 -2.191406 5.640625 -1.414062 5.109375 -0.84375 C 4.578125 -0.28125 3.75 0 2.625 0 Z M 1.4375 -0.640625 L 2.609375 -0.640625 C 3.234375 -0.640625 3.726562 -0.738281 4.09375 -0.9375 C 4.457031 -1.144531 4.71875 -1.4375 4.875 -1.8125 C 5.039062 -2.195312 5.125 -2.648438 5.125 -3.171875 C 5.125 -3.703125 5.039062 -4.160156 4.875 -4.546875 C 4.71875 -4.929688 4.457031 -5.222656 4.09375 -5.421875 C 3.726562 -5.628906 3.234375 -5.734375 2.609375 -5.734375 L 1.4375 -5.734375 Z M 1.4375 -0.640625 "/></g></g></g><g fill="#262730" fill-opacity="1"><g transform="translate(69.57649, 177.88829)"><g><path d="M 2.265625 0 L 2.265625 -2.421875 L 0.1875 -6.375 L 1.046875 -6.375 L 2.640625 -3.15625 L 4.234375 -6.375 L 5.09375 -6.375 L 3.03125 -2.421875 L 3.03125 0 Z M 2.265625 0 "/></g></g></g><g fill="#262730" fill-opacity="1"><g transform="translate(75.401568, 177.88829)"><g/></g></g><g fill="#262730" fill-opacity="1"><g transform="translate(78.364351, 177.88829)"><g><path d="M 0.671875 0 L 0.671875 -6.375 L 4.546875 -6.375 L 4.546875 -5.75 L 1.4375 -5.75 L 1.4375 -3.5 L 4.09375 -3.5 L 4.09375 -2.890625 L 1.4375 -2.890625 L 1.4375 0 Z M 0.671875 0 "/></g></g></g><g fill="#262730" fill-opacity="1"><g transform="translate(83.779229, 177.88829)"><g><path d="M 3.578125 0.109375 C 2.941406 0.109375 2.390625 -0.0234375 1.921875 -0.296875 C 1.453125 -0.578125 1.082031 -0.96875 0.8125 -1.46875 C 0.550781 -1.96875 0.421875 -2.539062 0.421875 -3.1875 C 0.421875 -3.832031 0.550781 -4.398438 0.8125 -4.890625 C 1.082031 -5.390625 1.453125 -5.78125 1.921875 -6.0625 C 2.390625 -6.34375 2.941406 -6.484375 3.578125 -6.484375 C 4.203125 -6.484375 4.75 -6.34375 5.21875 -6.0625 C 5.695312 -5.78125 6.066406 -5.390625 6.328125 -4.890625 C 6.585938 -4.398438 6.71875 -3.832031 6.71875 -3.1875 C 6.71875 -2.539062 6.585938 -1.96875 6.328125 -1.46875 C 6.066406 -0.96875 5.695312 -0.578125 5.21875 -0.296875 C 4.75 -0.0234375 4.203125 0.109375 3.578125 0.109375 Z M 3.578125 -0.5625 C 4.035156 -0.5625 4.441406 -0.664062 4.796875 -0.875 C 5.160156 -1.082031 5.441406 -1.382812 5.640625 -1.78125 C 5.835938 -2.175781 5.9375 -2.644531 5.9375 -3.1875 C 5.9375 -3.738281 5.835938 -4.207031 5.640625 -4.59375 C 5.441406 -4.976562 5.160156 -5.273438 4.796875 -5.484375 C 4.441406 -5.691406 4.035156 -5.796875 3.578125 -5.796875 C 3.109375 -5.796875 2.691406 -5.691406 2.328125 -5.484375 C 1.972656 -5.273438 1.695312 -4.976562 1.5 -4.59375 C 1.3125 -4.207031 1.21875 -3.738281 1.21875 -3.1875 C 1.21875 -2.644531 1.3125 -2.175781 1.5 -1.78125 C 1.695312 -1.382812 1.972656 -1.082031 2.328125 -0.875 C 2.691406 -0.664062 3.109375 -0.5625 3.578125 -0.5625 Z M 3.578125 -0.5625 "/></g></g></g><g fill="#262730" fill-opacity="1"><g transform="translate(91.473013, 177.88829)"><g><path d="M 0.671875 0 L 0.671875 -6.375 L 2.734375 -6.375 C 3.234375 -6.375 3.640625 -6.289062 3.953125 -6.125 C 4.265625 -5.96875 4.492188 -5.742188 4.640625 -5.453125 C 4.796875 -5.171875 4.875 -4.859375 4.875 -4.515625 C 4.875 -4.109375 4.765625 -3.742188 4.546875 -3.421875 C 4.335938 -3.097656 4.003906 -2.867188 3.546875 -2.734375 L 4.953125 0 L 4.046875 0 L 2.75 -2.625 L 1.4375 -2.625 L 1.4375 0 Z M 1.4375 -3.234375 L 2.671875 -3.234375 C 3.171875 -3.234375 3.53125 -3.347656 3.75 -3.578125 C 3.976562 -3.816406 4.09375 -4.125 4.09375 -4.5 C 4.09375 -4.875 3.976562 -5.171875 3.75 -5.390625 C 3.53125 -5.617188 3.171875 -5.734375 2.671875 -5.734375 L 1.4375 -5.734375 Z M 1.4375 -3.234375 "/></g></g></g><g fill="#262730" fill-opacity="1"><g transform="translate(97.425714, 177.88829)"><g/></g></g><g fill="#262730" fill-opacity="1"><g transform="translate(100.388498, 177.88829)"><g><path d="M 0.671875 0 L 0.671875 -6.375 L 1.4375 -6.375 L 1.4375 -0.609375 L 4.40625 -0.609375 L 4.40625 0 Z M 0.671875 0 "/></g></g></g><g fill="#262730" fill-opacity="1"><g transform="translate(105.721343, 177.88829)"><g><path d="M 0.671875 0 L 0.671875 -6.375 L 1.4375 -6.375 L 1.4375 0 Z M 0.671875 0 "/></g></g></g><g fill="#262730" fill-opacity="1"><g transform="translate(108.383317, 177.88829)"><g><path d="M 2.59375 0 L 0.203125 -6.375 L 1.03125 -6.375 L 3.046875 -0.8125 L 5.078125 -6.375 L 5.890625 -6.375 L 3.484375 0 Z M 2.59375 0 "/></g></g></g><g fill="#262730" fill-opacity="1"><g transform="translate(115.019686, 177.88829)"><g><path d="M 0.671875 0 L 0.671875 -6.375 L 1.4375 -6.375 L 1.4375 0 Z M 0.671875 0 "/></g></g></g><g fill="#262730" fill-opacity="1"><g transform="translate(117.68166, 177.88829)"><g><path d="M 0.671875 0 L 0.671875 -6.375 L 1.4375 -6.375 L 4.84375 -1.265625 L 4.84375 -6.375 L 5.609375 -6.375 L 5.609375 0 L 4.84375 0 L 1.4375 -5.109375 L 1.4375 0 Z M 0.671875 0 "/></g></g></g><g fill="#262730" fill-opacity="1"><g transform="translate(124.509458, 177.88829)"><g><path d="M 3.421875 0.109375 C 2.816406 0.109375 2.289062 -0.0234375 1.84375 -0.296875 C 1.394531 -0.578125 1.046875 -0.960938 0.796875 -1.453125 C 0.546875 -1.953125 0.421875 -2.523438 0.421875 -3.171875 C 0.421875 -3.828125 0.546875 -4.398438 0.796875 -4.890625 C 1.054688 -5.390625 1.414062 -5.78125 1.875 -6.0625 C 2.34375 -6.34375 2.894531 -6.484375 3.53125 -6.484375 C 4.238281 -6.484375 4.832031 -6.3125 5.3125 -5.96875 C 5.789062 -5.625 6.097656 -5.144531 6.234375 -4.53125 L 5.359375 -4.53125 C 5.273438 -4.914062 5.070312 -5.21875 4.75 -5.4375 C 4.425781 -5.664062 4.019531 -5.78125 3.53125 -5.78125 C 3.0625 -5.78125 2.648438 -5.675781 2.296875 -5.46875 C 1.953125 -5.257812 1.6875 -4.957031 1.5 -4.5625 C 1.3125 -4.175781 1.21875 -3.710938 1.21875 -3.171875 C 1.21875 -2.640625 1.3125 -2.175781 1.5 -1.78125 C 1.6875 -1.394531 1.945312 -1.097656 2.28125 -0.890625 C 2.613281 -0.679688 3 -0.578125 3.4375 -0.578125 C 4.125 -0.578125 4.640625 -0.773438 4.984375 -1.171875 C 5.328125 -1.566406 5.523438 -2.113281 5.578125 -2.8125 L 3.734375 -2.8125 L 3.734375 -3.40625 L 6.359375 -3.40625 L 6.359375 0 L 5.65625 0 L 5.59375 -1.046875 C 5.363281 -0.671875 5.082031 -0.382812 4.75 -0.1875 C 4.414062 0.0078125 3.972656 0.109375 3.421875 0.109375 Z M 3.421875 0.109375 "/></g></g></g><g fill="#262730" fill-opacity="1"><g transform="translate(131.957118, 177.88829)"><g/></g></g><g fill="#262730" fill-opacity="1"><g transform="translate(134.919901, 177.88829)"><g><path d="M 0.671875 0 L 0.671875 -6.375 L 2.734375 -6.375 C 3.234375 -6.375 3.640625 -6.289062 3.953125 -6.125 C 4.265625 -5.96875 4.492188 -5.742188 4.640625 -5.453125 C 4.796875 -5.171875 4.875 -4.859375 4.875 -4.515625 C 4.875 -4.109375 4.765625 -3.742188 4.546875 -3.421875 C 4.335938 -3.097656 4.003906 -2.867188 3.546875 -2.734375 L 4.953125 0 L 4.046875 0 L 2.75 -2.625 L 1.4375 -2.625 L 1.4375 0 Z M 1.4375 -3.234375 L 2.671875 -3.234375 C 3.171875 -3.234375 3.53125 -3.347656 3.75 -3.578125 C 3.976562 -3.816406 4.09375 -4.125 4.09375 -4.5 C 4.09375 -4.875 3.976562 -5.171875 3.75 -5.390625 C 3.53125 -5.617188 3.171875 -5.734375 2.671875 -5.734375 L 1.4375 -5.734375 Z M 1.4375 -3.234375 "/></g></g></g><g fill="#262730" fill-opacity="1"><g transform="translate(140.872602, 177.88829)"><g><path d="M 0.671875 0 L 0.671875 -6.375 L 4.625 -6.375 L 4.625 -5.75 L 1.4375 -5.75 L 1.4375 -3.53125 L 4.34375 -3.53125 L 4.34375 -2.90625 L 1.4375 -2.90625 L 1.4375 -0.625 L 4.625 -0.625 L 4.625 0 Z M 0.671875 0 "/></g></g></g><g fill="#262730" fill-opacity="1"><g transform="translate(146.560947, 177.88829)"><g><path d="M 0.671875 0 L 0.671875 -6.375 L 1.4375 -6.375 L 4.84375 -1.265625 L 4.84375 -6.375 L 5.609375 -6.375 L 5.609375 0 L 4.84375 0 L 1.4375 -5.109375 L 1.4375 0 Z M 0.671875 0 "/></g></g></g><g fill="#262730" fill-opacity="1"><g transform="translate(153.388745, 177.88829)"><g><path d="M 2.171875 0 L 2.171875 -5.75 L 0.265625 -5.75 L 0.265625 -6.375 L 4.84375 -6.375 L 4.84375 -5.75 L 2.9375 -5.75 L 2.9375 0 Z M 2.171875 0 "/></g></g></g><g fill="#262730" fill-opacity="1"><g transform="translate(159.040637, 177.88829)"><g><path d="M 0.265625 0 L 2.625 -6.375 L 3.4375 -6.375 L 5.78125 0 L 4.96875 0 L 4.375 -1.640625 L 1.671875 -1.640625 L 1.078125 0 Z M 1.890625 -2.265625 L 4.15625 -2.265625 L 3.03125 -5.40625 Z M 1.890625 -2.265625 "/></g></g></g><g fill="#262730" fill-opacity="1"><g transform="translate(165.640542, 177.88829)"><g><path d="M 0.671875 0 L 0.671875 -6.375 L 1.4375 -6.375 L 1.4375 -0.609375 L 4.40625 -0.609375 L 4.40625 0 Z M 0.671875 0 "/></g></g></g><g fill="#262730" fill-opacity="1"><g transform="translate(22.960765, 161.698924)"><g><path d="M 2.078125 0 C 1.984375 0 1.90625 -0.03125 1.84375 -0.09375 C 1.78125 -0.15625 1.75 -0.234375 1.75 -0.328125 L 1.75 -18.796875 C 1.75 -18.890625 1.78125 -18.96875 1.84375 -19.03125 C 1.90625 -19.09375 1.984375 -19.125 2.078125 -19.125 L 4.59375 -19.125 C 4.6875 -19.125 4.765625 -19.09375 4.828125 -19.03125 C 4.890625 -18.96875 4.921875 -18.890625 4.921875 -18.796875 L 4.921875 -2.875 C 4.921875 -2.78125 4.96875 -2.734375 5.0625 -2.734375 L 12.578125 -2.734375 C 12.660156 -2.734375 12.734375 -2.703125 12.796875 -2.640625 C 12.867188 -2.578125 12.90625 -2.5 12.90625 -2.40625 L 12.90625 -0.328125 C 12.90625 -0.234375 12.867188 -0.15625 12.796875 -0.09375 C 12.734375 -0.03125 12.660156 0 12.578125 0 Z M 2.078125 0 "/></g></g></g><g fill="#262730" fill-opacity="1"><g transform="translate(36.836911, 161.698924)"><g><path d="M 2.078125 0 C 1.984375 0 1.90625 -0.03125 1.84375 -0.09375 C 1.78125 -0.15625 1.75 -0.234375 1.75 -0.328125 L 1.75 -18.796875 C 1.75 -18.890625 1.78125 -18.96875 1.84375 -19.03125 C 1.90625 -19.09375 1.984375 -19.125 2.078125 -19.125 L 4.59375 -19.125 C 4.6875 -19.125 4.765625 -19.09375 4.828125 -19.03125 C 4.890625 -18.96875 4.921875 -18.890625 4.921875 -18.796875 L 4.921875 -0.328125 C 4.921875 -0.234375 4.890625 -0.15625 4.828125 -0.09375 C 4.765625 -0.03125 4.6875 0 4.59375 0 Z M 2.078125 0 "/></g></g></g><g fill="#262730" fill-opacity="1"><g transform="translate(43.884361, 161.698924)"><g><path d="M 6.015625 0 C 5.816406 0 5.6875 -0.0859375 5.625 -0.265625 L 0.796875 -18.78125 L 0.796875 -18.890625 C 0.796875 -19.046875 0.894531 -19.125 1.09375 -19.125 L 3.796875 -19.125 C 3.984375 -19.125 4.101562 -19.035156 4.15625 -18.859375 L 7.375 -5.109375 C 7.394531 -5.035156 7.421875 -5 7.453125 -5 C 7.492188 -5 7.523438 -5.035156 7.546875 -5.109375 L 10.6875 -18.828125 C 10.738281 -19.023438 10.859375 -19.125 11.046875 -19.125 L 13.6875 -19.125 C 13.925781 -19.125 14.019531 -19.007812 13.96875 -18.78125 L 9.125 -0.265625 C 9.070312 -0.0859375 8.945312 0 8.75 0 Z M 6.015625 0 "/></g></g></g><g fill="#262730" fill-opacity="1"><g transform="translate(59.044311, 161.698924)"><g><path d="M 2.078125 0 C 1.984375 0 1.90625 -0.03125 1.84375 -0.09375 C 1.78125 -0.15625 1.75 -0.234375 1.75 -0.328125 L 1.75 -18.796875 C 1.75 -18.890625 1.78125 -18.96875 1.84375 -19.03125 C 1.90625 -19.09375 1.984375 -19.125 2.078125 -19.125 L 4.59375 -19.125 C 4.6875 -19.125 4.765625 -19.09375 4.828125 -19.03125 C 4.890625 -18.96875 4.921875 -18.890625 4.921875 -18.796875 L 4.921875 -0.328125 C 4.921875 -0.234375 4.890625 -0.15625 4.828125 -0.09375 C 4.765625 -0.03125 4.6875 0 4.59375 0 Z M 2.078125 0 "/></g></g></g><g fill="#262730" fill-opacity="1"><g transform="translate(66.091763, 161.698924)"><g><path d="M 11.171875 -18.796875 C 11.171875 -18.890625 11.203125 -18.96875 11.265625 -19.03125 C 11.335938 -19.09375 11.414062 -19.125 11.5 -19.125 L 14.015625 -19.125 C 14.109375 -19.125 14.1875 -19.09375 14.25 -19.03125 C 14.3125 -18.96875 14.34375 -18.890625 14.34375 -18.796875 L 14.34375 -0.328125 C 14.34375 -0.234375 14.3125 -0.15625 14.25 -0.09375 C 14.1875 -0.03125 14.109375 0 14.015625 0 L 11.375 0 C 11.207031 0 11.078125 -0.0820312 10.984375 -0.25 L 5.03125 -12.484375 C 4.988281 -12.546875 4.945312 -12.570312 4.90625 -12.5625 C 4.875 -12.550781 4.859375 -12.507812 4.859375 -12.4375 L 4.890625 -0.328125 C 4.890625 -0.234375 4.859375 -0.15625 4.796875 -0.09375 C 4.734375 -0.03125 4.65625 0 4.5625 0 L 2.046875 0 C 1.953125 0 1.875 -0.03125 1.8125 -0.09375 C 1.75 -0.15625 1.71875 -0.234375 1.71875 -0.328125 L 1.71875 -18.796875 C 1.71875 -18.890625 1.75 -18.96875 1.8125 -19.03125 C 1.875 -19.09375 1.953125 -19.125 2.046875 -19.125 L 4.671875 -19.125 C 4.859375 -19.125 4.988281 -19.046875 5.0625 -18.890625 L 11.046875 -6.59375 C 11.078125 -6.53125 11.109375 -6.503906 11.140625 -6.515625 C 11.179688 -6.523438 11.203125 -6.566406 11.203125 -6.640625 Z M 11.171875 -18.796875 "/></g></g></g><g fill="#262730" fill-opacity="1"><g transform="translate(82.562822, 161.698924)"><g><path d="M 7.328125 0.21875 C 6.140625 0.21875 5.09375 -0.015625 4.1875 -0.484375 C 3.289062 -0.960938 2.59375 -1.632812 2.09375 -2.5 C 1.59375 -3.363281 1.34375 -4.363281 1.34375 -5.5 L 1.34375 -13.640625 C 1.34375 -14.765625 1.59375 -15.757812 2.09375 -16.625 C 2.59375 -17.488281 3.289062 -18.15625 4.1875 -18.625 C 5.09375 -19.101562 6.140625 -19.34375 7.328125 -19.34375 C 8.503906 -19.34375 9.546875 -19.109375 10.453125 -18.640625 C 11.367188 -18.179688 12.078125 -17.53125 12.578125 -16.6875 C 13.085938 -15.851562 13.34375 -14.898438 13.34375 -13.828125 L 13.34375 -13.203125 C 13.34375 -13.109375 13.304688 -13.03125 13.234375 -12.96875 C 13.171875 -12.90625 13.097656 -12.875 13.015625 -12.875 L 10.5 -12.875 C 10.40625 -12.875 10.328125 -12.90625 10.265625 -12.96875 C 10.203125 -13.03125 10.171875 -13.109375 10.171875 -13.203125 L 10.171875 -13.828125 C 10.171875 -14.648438 9.910156 -15.316406 9.390625 -15.828125 C 8.867188 -16.347656 8.179688 -16.609375 7.328125 -16.609375 C 6.484375 -16.609375 5.800781 -16.335938 5.28125 -15.796875 C 4.769531 -15.265625 4.515625 -14.5625 4.515625 -13.6875 L 4.515625 -5.4375 C 4.515625 -4.5625 4.78125 -3.851562 5.3125 -3.3125 C 5.851562 -2.78125 6.550781 -2.515625 7.40625 -2.515625 C 8.238281 -2.515625 8.90625 -2.753906 9.40625 -3.234375 C 9.914062 -3.722656 10.171875 -4.382812 10.171875 -5.21875 L 10.171875 -7.375 C 10.171875 -7.46875 10.125 -7.515625 10.03125 -7.515625 L 7.546875 -7.515625 C 7.453125 -7.515625 7.375 -7.546875 7.3125 -7.609375 C 7.25 -7.671875 7.21875 -7.75 7.21875 -7.84375 L 7.21875 -9.84375 C 7.21875 -9.925781 7.25 -10 7.3125 -10.0625 C 7.375 -10.132812 7.453125 -10.171875 7.546875 -10.171875 L 13.015625 -10.171875 C 13.097656 -10.171875 13.171875 -10.132812 13.234375 -10.0625 C 13.304688 -10 13.34375 -9.925781 13.34375 -9.84375 L 13.34375 -5.578125 C 13.34375 -3.773438 12.796875 -2.359375 11.703125 -1.328125 C 10.609375 -0.296875 9.148438 0.21875 7.328125 0.21875 Z M 7.328125 0.21875 "/></g></g></g><g fill="#262730" fill-opacity="1"><g transform="translate(97.640831, 161.698924)"><g/></g></g><g fill="#262730" fill-opacity="1"><g transform="translate(103.513743, 161.698924)"><g><path d="M 13.65625 -5.25 C 13.65625 -3.550781 13.125 -2.25 12.0625 -1.34375 C 11 -0.445312 9.609375 0 7.890625 0 L 2.078125 0 C 1.984375 0 1.90625 -0.03125 1.84375 -0.09375 C 1.78125 -0.15625 1.75 -0.234375 1.75 -0.328125 L 1.75 -18.796875 C 1.75 -18.890625 1.78125 -18.96875 1.84375 -19.03125 C 1.90625 -19.09375 1.984375 -19.125 2.078125 -19.125 L 7.5625 -19.125 C 9.40625 -19.125 10.84375 -18.691406 11.875 -17.828125 C 12.90625 -16.960938 13.421875 -15.675781 13.421875 -13.96875 C 13.421875 -12.09375 12.679688 -10.757812 11.203125 -9.96875 C 11.109375 -9.914062 11.097656 -9.863281 11.171875 -9.8125 C 12.828125 -8.914062 13.65625 -7.394531 13.65625 -5.25 Z M 5.0625 -16.390625 C 4.96875 -16.390625 4.921875 -16.347656 4.921875 -16.265625 L 4.921875 -11.171875 C 4.921875 -11.085938 4.96875 -11.046875 5.0625 -11.046875 L 7.59375 -11.046875 C 8.445312 -11.046875 9.113281 -11.273438 9.59375 -11.734375 C 10.082031 -12.203125 10.328125 -12.851562 10.328125 -13.6875 C 10.328125 -14.539062 10.082031 -15.203125 9.59375 -15.671875 C 9.113281 -16.148438 8.445312 -16.390625 7.59375 -16.390625 Z M 7.78125 -2.765625 C 8.625 -2.765625 9.285156 -3.019531 9.765625 -3.53125 C 10.253906 -4.039062 10.5 -4.75 10.5 -5.65625 C 10.5 -6.5625 10.25 -7.273438 9.75 -7.796875 C 9.257812 -8.316406 8.597656 -8.578125 7.765625 -8.578125 L 5.0625 -8.578125 C 4.96875 -8.578125 4.921875 -8.53125 4.921875 -8.4375 L 4.921875 -2.890625 C 4.921875 -2.804688 4.96875 -2.765625 5.0625 -2.765625 Z M 7.78125 -2.765625 "/></g></g></g><g fill="#262730" fill-opacity="1"><g transform="translate(118.728313, 161.698924)"><g><path d="M 7.59375 0.21875 C 6.414062 0.21875 5.367188 -0.0234375 4.453125 -0.515625 C 3.546875 -1.003906 2.835938 -1.703125 2.328125 -2.609375 C 1.828125 -3.515625 1.578125 -4.554688 1.578125 -5.734375 L 1.578125 -18.796875 C 1.578125 -18.890625 1.609375 -18.96875 1.671875 -19.03125 C 1.742188 -19.09375 1.820312 -19.125 1.90625 -19.125 L 4.421875 -19.125 C 4.515625 -19.125 4.59375 -19.09375 4.65625 -19.03125 C 4.71875 -18.96875 4.75 -18.890625 4.75 -18.796875 L 4.75 -5.578125 C 4.75 -4.660156 5.007812 -3.921875 5.53125 -3.359375 C 6.050781 -2.796875 6.738281 -2.515625 7.59375 -2.515625 C 8.445312 -2.515625 9.140625 -2.796875 9.671875 -3.359375 C 10.203125 -3.921875 10.46875 -4.660156 10.46875 -5.578125 L 10.46875 -18.796875 C 10.46875 -18.890625 10.5 -18.96875 10.5625 -19.03125 C 10.625 -19.09375 10.703125 -19.125 10.796875 -19.125 L 13.3125 -19.125 C 13.40625 -19.125 13.484375 -19.09375 13.546875 -19.03125 C 13.609375 -18.96875 13.640625 -18.890625 13.640625 -18.796875 L 13.640625 -5.734375 C 13.640625 -4.554688 13.390625 -3.515625 12.890625 -2.609375 C 12.390625 -1.703125 11.679688 -1.003906 10.765625 -0.515625 C 9.859375 -0.0234375 8.800781 0.21875 7.59375 0.21875 Z M 7.59375 0.21875 "/></g></g></g><g fill="#262730" fill-opacity="1"><g transform="translate(134.352604, 161.698924)"><g><path d="M 2.078125 0 C 1.984375 0 1.90625 -0.03125 1.84375 -0.09375 C 1.78125 -0.15625 1.75 -0.234375 1.75 -0.328125 L 1.75 -18.796875 C 1.75 -18.890625 1.78125 -18.96875 1.84375 -19.03125 C 1.90625 -19.09375 1.984375 -19.125 2.078125 -19.125 L 7.734375 -19.125 C 9.503906 -19.125 10.921875 -18.628906 11.984375 -17.640625 C 13.046875 -16.660156 13.578125 -15.351562 13.578125 -13.71875 L 13.578125 -5.40625 C 13.578125 -3.769531 13.046875 -2.457031 11.984375 -1.46875 C 10.921875 -0.488281 9.503906 0 7.734375 0 Z M 4.921875 -2.875 C 4.921875 -2.78125 4.96875 -2.734375 5.0625 -2.734375 L 7.765625 -2.765625 C 8.546875 -2.765625 9.171875 -3.03125 9.640625 -3.5625 C 10.117188 -4.101562 10.375 -4.835938 10.40625 -5.765625 L 10.40625 -13.359375 C 10.40625 -14.285156 10.164062 -15.019531 9.6875 -15.5625 C 9.207031 -16.113281 8.566406 -16.390625 7.765625 -16.390625 L 5.0625 -16.390625 C 4.96875 -16.390625 4.921875 -16.347656 4.921875 -16.265625 Z M 4.921875 -2.875 "/></g></g></g><g fill="#ff914d" fill-opacity="1"><g transform="translate(149.639144, 161.698924)"><g><path d="M 2.078125 0 C 1.984375 0 1.90625 -0.03125 1.84375 -0.09375 C 1.78125 -0.15625 1.75 -0.234375 1.75 -0.328125 L 1.75 -18.796875 C 1.75 -18.890625 1.78125 -18.96875 1.84375 -19.03125 C 1.90625 -19.09375 1.984375 -19.125 2.078125 -19.125 L 7.734375 -19.125 C 9.503906 -19.125 10.921875 -18.628906 11.984375 -17.640625 C 13.046875 -16.660156 13.578125 -15.351562 13.578125 -13.71875 L 13.578125 -5.40625 C 13.578125 -3.769531 13.046875 -2.457031 11.984375 -1.46875 C 10.921875 -0.488281 9.503906 0 7.734375 0 Z M 4.921875 -2.875 C 4.921875 -2.78125 4.96875 -2.734375 5.0625 -2.734375 L 7.765625 -2.765625 C 8.546875 -2.765625 9.171875 -3.03125 9.640625 -3.5625 C 10.117188 -4.101562 10.375 -4.835938 10.40625 -5.765625 L 10.40625 -13.359375 C 10.40625 -14.285156 10.164062 -15.019531 9.6875 -15.5625 C 9.207031 -16.113281 8.566406 -16.390625 7.765625 -16.390625 L 5.0625 -16.390625 C 4.96875 -16.390625 4.921875 -16.347656 4.921875 -16.265625 Z M 4.921875 -2.875 "/></g></g></g></svg>