<?xml version="1.0" encoding="UTF-8"?>
<svg xmlns="http://www.w3.org/2000/svg" xmlns:xlink="http://www.w3.org/1999/xlink" width="16px" height="16px" viewBox="0 0 16 16" version="1.1">
<defs>
<clipPath id="clip1">
  <path d="M 2.914062 0.546875 L 13.089844 0.546875 L 13.089844 10.277344 L 2.914062 10.277344 Z M 2.914062 0.546875 "/>
</clipPath>
</defs>
<g id="surface1">
<g clip-path="url(#clip1)" clip-rule="nonzero">
<path style=" stroke:none;fill-rule:nonzero;fill:rgb(14.901961%,15.294118%,18.823529%);fill-opacity:1;" d="M 12.4375 4.519531 C 10.976562 3.519531 9.519531 2.515625 8.058594 1.511719 C 8.039062 1.496094 8.015625 1.484375 7.996094 1.472656 C 7.984375 1.480469 7.972656 1.484375 7.964844 1.492188 C 6.488281 2.507812 5.011719 3.519531 3.535156 4.535156 C 3.515625 4.546875 3.503906 4.5625 3.492188 4.585938 C 3.484375 4.605469 3.480469 4.625 3.480469 4.648438 C 3.484375 6.214844 3.484375 7.78125 3.484375 9.351562 C 3.484375 9.378906 3.488281 9.40625 3.492188 9.433594 L 4.863281 9.433594 L 4.863281 6.238281 L 4.777344 6.238281 C 4.566406 6.238281 4.359375 6.242188 4.148438 6.238281 C 4.117188 6.242188 4.089844 6.234375 4.0625 6.222656 C 4.035156 6.207031 4.011719 6.1875 3.996094 6.160156 C 3.980469 6.136719 3.96875 6.109375 3.96875 6.078125 C 3.96875 6.046875 3.976562 6.019531 3.988281 5.992188 C 4.140625 5.648438 4.292969 5.304688 4.449219 4.960938 C 4.460938 4.925781 4.484375 4.898438 4.515625 4.878906 C 4.546875 4.855469 4.582031 4.847656 4.621094 4.847656 C 4.902344 4.847656 5.183594 4.847656 5.460938 4.847656 C 5.5 4.847656 5.535156 4.855469 5.566406 4.878906 C 5.597656 4.898438 5.621094 4.925781 5.636719 4.960938 C 5.785156 5.296875 5.933594 5.632812 6.082031 5.96875 C 6.152344 6.125 6.078125 6.238281 5.90625 6.238281 C 5.707031 6.242188 5.507812 6.242188 5.304688 6.238281 C 5.230469 6.238281 5.214844 6.257812 5.214844 6.332031 C 5.214844 7.335938 5.214844 8.34375 5.214844 9.347656 C 5.214844 9.378906 5.21875 9.40625 5.21875 9.4375 C 5.640625 9.4375 6.050781 9.4375 6.464844 9.4375 C 6.484375 9.433594 6.5 9.421875 6.507812 9.40625 C 6.558594 9.242188 6.605469 9.078125 6.65625 8.910156 C 6.632812 8.902344 6.621094 8.894531 6.605469 8.886719 C 6.527344 8.859375 6.453125 8.820312 6.386719 8.769531 C 6.320312 8.722656 6.265625 8.660156 6.21875 8.59375 C 6.171875 8.523438 6.132812 8.449219 6.109375 8.371094 C 6.085938 8.289062 6.074219 8.210938 6.078125 8.125 C 6.078125 7.894531 6.074219 7.664062 6.078125 7.433594 C 6.082031 7.375 6.09375 7.320312 6.121094 7.269531 C 6.136719 7.238281 6.15625 7.207031 6.179688 7.183594 C 6.203125 7.15625 6.230469 7.132812 6.261719 7.117188 C 6.292969 7.097656 6.324219 7.085938 6.359375 7.078125 C 6.394531 7.070312 6.429688 7.066406 6.464844 7.070312 C 6.582031 7.070312 6.699219 7.070312 6.824219 7.070312 C 6.824219 6.863281 6.824219 6.667969 6.824219 6.472656 C 6.824219 6.175781 7.003906 5.992188 7.300781 5.992188 C 7.765625 5.992188 8.230469 5.992188 8.695312 5.992188 C 8.730469 5.988281 8.761719 5.992188 8.792969 5.996094 C 8.824219 6 8.855469 6.007812 8.882812 6.019531 C 8.914062 6.027344 8.941406 6.042969 8.96875 6.058594 C 8.996094 6.078125 9.019531 6.097656 9.042969 6.121094 C 9.066406 6.144531 9.085938 6.167969 9.101562 6.195312 C 9.121094 6.222656 9.132812 6.25 9.144531 6.28125 C 9.15625 6.308594 9.164062 6.339844 9.167969 6.371094 C 9.171875 6.40625 9.171875 6.4375 9.171875 6.46875 L 9.171875 7.074219 C 9.308594 7.074219 9.441406 7.066406 9.570312 7.074219 C 9.59375 7.074219 9.617188 7.078125 9.640625 7.082031 C 9.664062 7.085938 9.683594 7.09375 9.707031 7.105469 C 9.726562 7.113281 9.746094 7.125 9.765625 7.136719 C 9.785156 7.152344 9.804688 7.167969 9.820312 7.183594 C 9.835938 7.199219 9.851562 7.21875 9.863281 7.238281 C 9.875 7.257812 9.882812 7.277344 9.894531 7.300781 C 9.902344 7.320312 9.90625 7.34375 9.910156 7.367188 C 9.914062 7.390625 9.917969 7.414062 9.917969 7.4375 C 9.917969 7.675781 9.921875 7.914062 9.917969 8.152344 C 9.917969 8.214844 9.910156 8.277344 9.894531 8.339844 C 9.878906 8.40625 9.855469 8.464844 9.824219 8.519531 C 9.792969 8.578125 9.753906 8.628906 9.710938 8.675781 C 9.667969 8.722656 9.617188 8.765625 9.566406 8.800781 C 9.492188 8.84375 9.417969 8.882812 9.34375 8.914062 C 9.386719 9.066406 9.433594 9.21875 9.476562 9.375 C 9.476562 9.386719 9.480469 9.394531 9.484375 9.40625 C 9.488281 9.414062 9.496094 9.421875 9.503906 9.425781 C 9.511719 9.433594 9.523438 9.4375 9.53125 9.4375 C 9.542969 9.441406 9.554688 9.441406 9.5625 9.441406 C 9.894531 9.4375 10.230469 9.4375 10.5625 9.4375 C 10.582031 9.4375 10.605469 9.4375 10.632812 9.433594 C 10.628906 9.40625 10.625 9.382812 10.621094 9.363281 C 10.507812 8.863281 10.398438 8.367188 10.289062 7.867188 C 10.28125 7.84375 10.28125 7.820312 10.285156 7.796875 C 10.285156 7.773438 10.296875 7.75 10.308594 7.730469 C 10.320312 7.710938 10.339844 7.691406 10.359375 7.679688 C 10.378906 7.667969 10.402344 7.660156 10.425781 7.65625 C 10.46875 7.648438 10.507812 7.648438 10.550781 7.648438 C 10.648438 7.648438 10.75 7.648438 10.851562 7.648438 C 10.8125 7.296875 10.726562 6.953125 10.59375 6.625 C 10.585938 6.601562 10.570312 6.585938 10.550781 6.578125 C 10.328125 6.527344 10.203125 6.371094 10.117188 6.179688 C 10.003906 5.933594 9.960938 5.675781 10.078125 5.414062 C 10.15625 5.242188 10.234375 5.210938 10.414062 5.269531 C 10.4375 5.277344 10.460938 5.285156 10.480469 5.296875 C 10.609375 5.363281 10.714844 5.457031 10.800781 5.570312 C 10.886719 5.683594 10.949219 5.8125 10.976562 5.953125 C 11.003906 6.03125 11.011719 6.113281 11 6.195312 C 10.992188 6.277344 10.964844 6.355469 10.917969 6.425781 C 10.910156 6.449219 10.910156 6.472656 10.917969 6.496094 C 10.957031 6.613281 11.003906 6.726562 11.035156 6.84375 C 11.082031 6.996094 11.117188 7.152344 11.160156 7.320312 C 11.1875 7.210938 11.210938 7.113281 11.230469 7.015625 C 11.230469 6.980469 11.226562 6.949219 11.214844 6.914062 C 11.179688 6.828125 11.152344 6.738281 11.140625 6.644531 C 11.136719 6.515625 11.164062 6.390625 11.214844 6.269531 C 11.265625 6.152344 11.339844 6.046875 11.433594 5.957031 C 11.535156 5.847656 11.660156 5.777344 11.808594 5.746094 C 11.828125 5.742188 11.847656 5.738281 11.867188 5.738281 C 11.886719 5.742188 11.90625 5.746094 11.925781 5.753906 C 11.941406 5.761719 11.960938 5.769531 11.976562 5.785156 C 11.988281 5.796875 12 5.8125 12.011719 5.832031 C 12.058594 5.90625 12.089844 5.988281 12.109375 6.070312 C 12.121094 6.144531 12.128906 6.21875 12.125 6.296875 C 12.121094 6.371094 12.105469 6.445312 12.085938 6.515625 C 12.066406 6.589844 12.039062 6.65625 12 6.722656 C 11.964844 6.789062 11.921875 6.847656 11.871094 6.90625 C 11.816406 6.96875 11.753906 7.015625 11.671875 7.042969 C 11.636719 7.050781 11.601562 7.074219 11.578125 7.101562 C 11.550781 7.132812 11.539062 7.167969 11.539062 7.207031 C 11.515625 7.351562 11.488281 7.496094 11.460938 7.648438 C 11.640625 7.648438 11.796875 7.644531 11.957031 7.648438 C 11.96875 7.648438 11.984375 7.648438 12 7.648438 C 12.015625 7.652344 12.03125 7.65625 12.042969 7.660156 C 12.058594 7.667969 12.070312 7.671875 12.082031 7.683594 C 12.09375 7.691406 12.105469 7.703125 12.113281 7.714844 C 12.125 7.726562 12.132812 7.738281 12.136719 7.753906 C 12.144531 7.765625 12.148438 7.78125 12.152344 7.796875 C 12.152344 7.808594 12.152344 7.824219 12.152344 7.839844 C 12.148438 7.855469 12.148438 7.871094 12.140625 7.882812 C 12.058594 8.265625 11.972656 8.648438 11.886719 9.03125 C 11.859375 9.164062 11.832031 9.296875 11.800781 9.433594 L 12.507812 9.433594 L 12.507812 9.339844 C 12.507812 7.777344 12.511719 6.21875 12.511719 4.65625 C 12.511719 4.628906 12.507812 4.601562 12.492188 4.578125 C 12.480469 4.554688 12.460938 4.535156 12.4375 4.519531 Z M 9.964844 5.503906 C 9.964844 5.652344 9.90625 5.714844 9.761719 5.714844 C 8.660156 5.71875 7.5625 5.71875 6.464844 5.714844 C 6.320312 5.714844 6.261719 5.652344 6.261719 5.511719 C 6.261719 4.800781 6.261719 4.09375 6.261719 3.382812 C 6.261719 3.242188 6.324219 3.183594 6.464844 3.183594 C 7.015625 3.179688 7.566406 3.179688 8.113281 3.183594 C 8.65625 3.183594 9.199219 3.183594 9.738281 3.183594 C 9.910156 3.183594 9.964844 3.238281 9.964844 3.410156 C 9.964844 4.109375 9.964844 4.808594 9.964844 5.503906 Z M 13.066406 4.53125 C 13.023438 4.503906 12.996094 4.488281 12.96875 4.46875 L 8.15625 1.15625 C 8.015625 1.058594 7.980469 1.058594 7.84375 1.15625 C 6.234375 2.261719 4.628906 3.367188 3.019531 4.46875 C 2.996094 4.488281 2.96875 4.503906 2.933594 4.53125 C 2.933594 4.34375 2.929688 4.175781 2.933594 4.007812 C 2.9375 3.984375 2.96875 3.957031 2.992188 3.941406 C 3.667969 3.480469 4.34375 3.023438 5.019531 2.5625 C 5.988281 1.90625 6.953125 1.246094 7.921875 0.585938 C 7.933594 0.578125 7.945312 0.570312 7.957031 0.566406 C 7.96875 0.558594 7.984375 0.558594 7.996094 0.558594 C 8.011719 0.558594 8.023438 0.558594 8.039062 0.566406 C 8.050781 0.570312 8.0625 0.578125 8.074219 0.585938 C 9.714844 1.703125 11.355469 2.820312 12.996094 3.9375 C 13.019531 3.949219 13.039062 3.96875 13.050781 3.992188 C 13.0625 4.019531 13.070312 4.042969 13.066406 4.070312 C 13.0625 4.21875 13.066406 4.367188 13.066406 4.53125 Z M 3.117188 9.789062 L 12.878906 9.789062 L 12.878906 10.273438 L 3.117188 10.273438 Z M 9.070312 8.597656 C 8.488281 8.59375 7.90625 8.597656 7.324219 8.597656 C 7.15625 8.597656 6.988281 8.601562 6.820312 8.585938 C 6.765625 8.582031 6.714844 8.566406 6.664062 8.542969 C 6.617188 8.515625 6.574219 8.484375 6.539062 8.445312 C 6.503906 8.40625 6.472656 8.359375 6.453125 8.308594 C 6.433594 8.257812 6.425781 8.207031 6.425781 8.152344 C 6.421875 7.910156 6.425781 7.671875 6.425781 7.421875 L 6.824219 7.421875 L 6.824219 7.746094 C 6.824219 7.824219 6.824219 7.90625 6.824219 7.984375 C 6.824219 8 6.824219 8.011719 6.824219 8.027344 C 6.824219 8.039062 6.828125 8.054688 6.832031 8.066406 C 6.835938 8.082031 6.84375 8.09375 6.851562 8.105469 C 6.859375 8.117188 6.867188 8.128906 6.875 8.136719 C 6.886719 8.148438 6.898438 8.15625 6.910156 8.164062 C 6.921875 8.171875 6.933594 8.175781 6.945312 8.179688 C 6.960938 8.1875 6.972656 8.1875 6.988281 8.191406 C 7.003906 8.191406 7.015625 8.191406 7.03125 8.1875 C 7.160156 8.191406 7.289062 8.1875 7.417969 8.1875 C 7.929688 8.1875 8.4375 8.1875 8.949219 8.1875 C 9.113281 8.1875 9.171875 8.128906 9.171875 7.960938 C 9.171875 7.785156 9.171875 7.609375 9.171875 7.421875 L 9.554688 7.421875 C 9.558594 7.425781 9.566406 7.429688 9.566406 7.433594 C 9.566406 7.695312 9.578125 7.953125 9.5625 8.210938 C 9.550781 8.386719 9.390625 8.597656 9.070312 8.597656 Z M 8.824219 7.289062 L 7.171875 7.289062 L 7.171875 6.535156 C 7.171875 6.34375 7.179688 6.335938 7.375 6.335938 C 7.804688 6.335938 8.234375 6.335938 8.664062 6.335938 C 8.800781 6.335938 8.824219 6.359375 8.824219 6.492188 C 8.824219 6.753906 8.824219 7.019531 8.824219 7.289062 Z M 10.679688 8 L 11.761719 8 C 11.722656 8.1875 11.683594 8.367188 11.644531 8.546875 C 11.582031 8.816406 11.523438 9.082031 11.464844 9.351562 C 11.453125 9.425781 11.421875 9.445312 11.351562 9.441406 C 11.25 9.433594 11.144531 9.441406 11.042969 9.4375 C 11.011719 9.429688 10.992188 9.414062 10.980469 9.386719 C 10.878906 8.9375 10.78125 8.484375 10.679688 8.035156 C 10.679688 8.023438 10.679688 8.011719 10.679688 8 Z M 9.011719 9.015625 C 9.046875 9.152344 9.089844 9.289062 9.132812 9.4375 L 6.863281 9.4375 C 6.886719 9.351562 6.90625 9.277344 6.929688 9.199219 C 6.957031 9.113281 6.964844 9 7.023438 8.953125 C 7.078125 8.910156 7.1875 8.941406 7.273438 8.941406 C 7.820312 8.941406 8.363281 8.941406 8.910156 8.9375 C 8.96875 8.9375 8.996094 8.957031 9.011719 9.015625 Z M 5.671875 5.890625 L 4.414062 5.890625 C 4.429688 5.859375 4.4375 5.828125 4.449219 5.800781 C 4.53125 5.621094 4.613281 5.441406 4.691406 5.261719 C 4.699219 5.238281 4.710938 5.222656 4.730469 5.207031 C 4.746094 5.195312 4.769531 5.191406 4.789062 5.191406 C 4.960938 5.195312 5.128906 5.191406 5.296875 5.195312 C 5.328125 5.195312 5.355469 5.210938 5.375 5.238281 C 5.476562 5.449219 5.570312 5.664062 5.671875 5.890625 Z M 7.179688 7.835938 L 7.179688 7.652344 L 8.820312 7.652344 L 8.820312 7.835938 Z M 10.367188 5.648438 C 10.550781 5.699219 10.722656 6.097656 10.621094 6.238281 C 10.457031 6.191406 10.324219 5.871094 10.367188 5.648438 Z M 11.507812 6.734375 C 11.414062 6.601562 11.570312 6.242188 11.765625 6.140625 C 11.824219 6.371094 11.660156 6.726562 11.507812 6.734375 Z M 7.394531 4.328125 C 7.574219 4.449219 7.757812 4.566406 7.933594 4.691406 C 7.949219 4.703125 7.96875 4.710938 7.988281 4.710938 C 8.011719 4.714844 8.03125 4.710938 8.046875 4.699219 C 8.300781 4.574219 8.558594 4.453125 8.808594 4.328125 C 8.851562 4.300781 8.898438 4.289062 8.949219 4.289062 C 8.996094 4.285156 9.042969 4.296875 9.089844 4.316406 C 9.238281 4.386719 9.394531 4.445312 9.546875 4.507812 C 9.570312 4.515625 9.589844 4.523438 9.613281 4.53125 L 9.613281 3.535156 L 6.609375 3.535156 L 6.609375 4.535156 C 6.804688 4.457031 6.988281 4.382812 7.171875 4.304688 C 7.210938 4.285156 7.246094 4.28125 7.289062 4.285156 C 7.328125 4.289062 7.363281 4.300781 7.394531 4.328125 Z M 8.109375 3.617188 C 8.140625 3.617188 8.171875 3.621094 8.199219 3.625 C 8.230469 3.632812 8.261719 3.640625 8.289062 3.652344 C 8.316406 3.664062 8.34375 3.679688 8.371094 3.695312 C 8.394531 3.710938 8.417969 3.730469 8.441406 3.753906 C 8.460938 3.773438 8.480469 3.796875 8.5 3.824219 C 8.515625 3.847656 8.53125 3.875 8.542969 3.902344 C 8.554688 3.933594 8.5625 3.960938 8.570312 3.992188 C 8.574219 4.019531 8.578125 4.050781 8.578125 4.082031 C 8.578125 4.113281 8.574219 4.144531 8.570312 4.171875 C 8.5625 4.203125 8.554688 4.234375 8.542969 4.261719 C 8.53125 4.289062 8.519531 4.316406 8.5 4.34375 C 8.484375 4.367188 8.464844 4.390625 8.441406 4.414062 C 8.421875 4.433594 8.398438 4.453125 8.371094 4.472656 C 8.347656 4.488281 8.320312 4.503906 8.292969 4.515625 C 8.265625 4.527344 8.234375 4.535156 8.203125 4.542969 C 8.175781 4.546875 8.144531 4.550781 8.113281 4.550781 C 8.082031 4.550781 8.050781 4.546875 8.023438 4.542969 C 7.992188 4.535156 7.964844 4.527344 7.933594 4.515625 C 7.90625 4.503906 7.878906 4.488281 7.855469 4.472656 C 7.828125 4.457031 7.804688 4.4375 7.785156 4.414062 C 7.761719 4.394531 7.742188 4.371094 7.726562 4.34375 C 7.707031 4.316406 7.695312 4.292969 7.683594 4.261719 C 7.671875 4.234375 7.660156 4.207031 7.65625 4.175781 C 7.648438 4.144531 7.648438 4.113281 7.648438 4.085938 C 7.648438 4.054688 7.652344 4.023438 7.65625 3.992188 C 7.664062 3.964844 7.671875 3.933594 7.683594 3.90625 C 7.695312 3.878906 7.710938 3.851562 7.726562 3.828125 C 7.742188 3.800781 7.761719 3.777344 7.785156 3.757812 C 7.804688 3.734375 7.828125 3.714844 7.855469 3.699219 C 7.878906 3.683594 7.90625 3.667969 7.933594 3.65625 C 7.960938 3.644531 7.988281 3.632812 8.019531 3.628906 C 8.050781 3.621094 8.078125 3.617188 8.109375 3.617188 Z M 8.292969 5.347656 C 8.296875 5.347656 8.300781 5.355469 8.308594 5.367188 L 6.609375 5.367188 C 6.609375 5.222656 6.605469 5.078125 6.609375 4.933594 C 6.609375 4.917969 6.632812 4.902344 6.652344 4.894531 C 6.839844 4.816406 7.027344 4.738281 7.214844 4.664062 C 7.238281 4.65625 7.257812 4.65625 7.28125 4.667969 C 7.617188 4.894531 7.957031 5.117188 8.292969 5.347656 Z M 9.613281 4.941406 C 9.617188 5.082031 9.617188 5.222656 9.617188 5.371094 C 9.394531 5.371094 9.1875 5.371094 8.980469 5.371094 C 8.960938 5.371094 8.941406 5.363281 8.925781 5.351562 C 8.730469 5.222656 8.53125 5.089844 8.324219 4.949219 C 8.414062 4.90625 8.496094 4.863281 8.578125 4.824219 C 8.6875 4.769531 8.796875 4.714844 8.910156 4.667969 C 8.941406 4.652344 8.976562 4.652344 9.011719 4.664062 C 9.199219 4.734375 9.382812 4.8125 9.566406 4.890625 C 9.585938 4.898438 9.613281 4.925781 9.613281 4.941406 Z M 7.996094 4.082031 C 7.996094 4.066406 7.996094 4.054688 8.003906 4.039062 C 8.007812 4.023438 8.015625 4.011719 8.027344 4 C 8.039062 3.992188 8.050781 3.980469 8.066406 3.976562 C 8.078125 3.96875 8.09375 3.964844 8.109375 3.964844 C 8.125 3.964844 8.140625 3.96875 8.15625 3.972656 C 8.167969 3.980469 8.183594 3.988281 8.195312 4 C 8.207031 4.007812 8.214844 4.023438 8.222656 4.035156 C 8.226562 4.050781 8.230469 4.066406 8.234375 4.082031 C 8.234375 4.097656 8.230469 4.113281 8.222656 4.128906 C 8.21875 4.144531 8.210938 4.15625 8.199219 4.167969 C 8.1875 4.179688 8.175781 4.1875 8.160156 4.191406 C 8.144531 4.199219 8.128906 4.203125 8.113281 4.203125 C 8.097656 4.203125 8.082031 4.199219 8.066406 4.195312 C 8.054688 4.1875 8.039062 4.179688 8.027344 4.167969 C 8.015625 4.15625 8.007812 4.144531 8.003906 4.128906 C 7.996094 4.113281 7.992188 4.097656 7.996094 4.082031 Z M 7.996094 4.082031 "/>
</g>
<path style=" stroke:none;fill-rule:nonzero;fill:rgb(14.901961%,15.294118%,18.823529%);fill-opacity:1;" d="M 1.515625 15.179688 L 1.515625 14.636719 L 1.707031 14.636719 C 1.746094 14.636719 1.777344 14.640625 1.800781 14.65625 C 1.824219 14.667969 1.84375 14.683594 1.855469 14.703125 C 1.871094 14.726562 1.875 14.75 1.875 14.773438 C 1.875 14.808594 1.867188 14.835938 1.847656 14.855469 C 1.828125 14.878906 1.808594 14.890625 1.78125 14.898438 C 1.800781 14.902344 1.820312 14.910156 1.835938 14.921875 C 1.851562 14.9375 1.863281 14.953125 1.875 14.96875 C 1.882812 14.988281 1.890625 15.011719 1.890625 15.03125 C 1.890625 15.058594 1.882812 15.085938 1.867188 15.105469 C 1.855469 15.128906 1.835938 15.144531 1.808594 15.160156 C 1.78125 15.171875 1.75 15.179688 1.710938 15.179688 Z M 1.578125 14.875 L 1.703125 14.875 C 1.734375 14.875 1.761719 14.863281 1.78125 14.847656 C 1.800781 14.832031 1.808594 14.808594 1.808594 14.78125 C 1.808594 14.753906 1.800781 14.730469 1.78125 14.714844 C 1.761719 14.699219 1.734375 14.691406 1.699219 14.691406 L 1.578125 14.691406 Z M 1.578125 15.125 L 1.707031 15.125 C 1.742188 15.125 1.769531 15.117188 1.789062 15.101562 C 1.8125 15.082031 1.820312 15.058594 1.820312 15.027344 C 1.820312 14.996094 1.8125 14.972656 1.789062 14.953125 C 1.769531 14.933594 1.742188 14.925781 1.703125 14.925781 L 1.578125 14.925781 Z M 1.578125 15.125 "/>
<path style=" stroke:none;fill-rule:nonzero;fill:rgb(14.901961%,15.294118%,18.823529%);fill-opacity:1;" d="M 2.03125 15.179688 L 2.03125 14.636719 L 2.367188 14.636719 L 2.367188 14.6875 L 2.09375 14.6875 L 2.09375 14.878906 L 2.34375 14.878906 L 2.34375 14.933594 L 2.09375 14.933594 L 2.09375 15.125 L 2.367188 15.125 L 2.367188 15.179688 Z M 2.03125 15.179688 "/>
<path style=" stroke:none;fill-rule:nonzero;fill:rgb(14.901961%,15.294118%,18.823529%);fill-opacity:1;" d="M 2.6875 15.1875 C 2.648438 15.1875 2.613281 15.183594 2.585938 15.167969 C 2.554688 15.152344 2.53125 15.132812 2.515625 15.105469 C 2.5 15.082031 2.492188 15.050781 2.492188 15.015625 L 2.558594 15.015625 C 2.558594 15.039062 2.566406 15.058594 2.574219 15.074219 C 2.585938 15.09375 2.597656 15.109375 2.617188 15.117188 C 2.636719 15.128906 2.660156 15.132812 2.6875 15.132812 C 2.726562 15.132812 2.753906 15.125 2.773438 15.109375 C 2.792969 15.089844 2.804688 15.066406 2.804688 15.042969 C 2.804688 15.019531 2.800781 15.003906 2.789062 14.988281 C 2.78125 14.976562 2.769531 14.964844 2.753906 14.957031 C 2.738281 14.949219 2.71875 14.941406 2.699219 14.933594 C 2.675781 14.929688 2.65625 14.921875 2.632812 14.914062 C 2.589844 14.898438 2.5625 14.882812 2.539062 14.859375 C 2.519531 14.839844 2.511719 14.808594 2.511719 14.777344 C 2.511719 14.746094 2.515625 14.722656 2.53125 14.699219 C 2.546875 14.675781 2.566406 14.65625 2.589844 14.644531 C 2.617188 14.632812 2.644531 14.625 2.683594 14.625 C 2.714844 14.625 2.746094 14.632812 2.773438 14.644531 C 2.796875 14.660156 2.816406 14.675781 2.832031 14.699219 C 2.847656 14.722656 2.855469 14.746094 2.855469 14.777344 L 2.785156 14.777344 C 2.785156 14.761719 2.78125 14.746094 2.773438 14.734375 C 2.765625 14.71875 2.753906 14.707031 2.738281 14.695312 C 2.722656 14.6875 2.703125 14.683594 2.679688 14.683594 C 2.648438 14.683594 2.625 14.6875 2.605469 14.707031 C 2.585938 14.71875 2.578125 14.742188 2.578125 14.769531 C 2.578125 14.792969 2.585938 14.808594 2.597656 14.824219 C 2.609375 14.835938 2.628906 14.84375 2.652344 14.851562 C 2.675781 14.859375 2.703125 14.871094 2.738281 14.882812 C 2.761719 14.890625 2.785156 14.902344 2.804688 14.914062 C 2.828125 14.925781 2.84375 14.941406 2.855469 14.960938 C 2.867188 14.980469 2.871094 15.007812 2.871094 15.039062 C 2.871094 15.0625 2.863281 15.085938 2.851562 15.109375 C 2.835938 15.132812 2.816406 15.152344 2.789062 15.167969 C 2.761719 15.183594 2.730469 15.1875 2.6875 15.1875 Z M 2.6875 15.1875 "/>
<path style=" stroke:none;fill-rule:nonzero;fill:rgb(14.901961%,15.294118%,18.823529%);fill-opacity:1;" d="M 3.140625 15.179688 L 3.140625 14.6875 L 2.976562 14.6875 L 2.976562 14.636719 L 3.367188 14.636719 L 3.367188 14.6875 L 3.203125 14.6875 L 3.203125 15.179688 Z M 3.140625 15.179688 "/>
<path style=" stroke:none;fill-rule:nonzero;fill:rgb(14.901961%,15.294118%,18.823529%);fill-opacity:1;" d="M 3.746094 15.179688 L 3.746094 14.636719 L 3.9375 14.636719 C 3.976562 14.636719 4.007812 14.640625 4.03125 14.65625 C 4.058594 14.667969 4.078125 14.683594 4.089844 14.703125 C 4.101562 14.726562 4.109375 14.75 4.109375 14.773438 C 4.109375 14.808594 4.097656 14.835938 4.078125 14.855469 C 4.0625 14.878906 4.039062 14.890625 4.011719 14.898438 C 4.03125 14.902344 4.050781 14.910156 4.066406 14.921875 C 4.082031 14.9375 4.097656 14.953125 4.105469 14.96875 C 4.117188 14.988281 4.121094 15.011719 4.121094 15.03125 C 4.121094 15.058594 4.113281 15.085938 4.101562 15.105469 C 4.085938 15.128906 4.066406 15.144531 4.039062 15.160156 C 4.015625 15.171875 3.980469 15.179688 3.945312 15.179688 Z M 3.8125 14.875 L 3.933594 14.875 C 3.96875 14.875 3.996094 14.863281 4.011719 14.847656 C 4.03125 14.832031 4.042969 14.808594 4.042969 14.78125 C 4.042969 14.753906 4.03125 14.730469 4.011719 14.714844 C 3.996094 14.699219 3.96875 14.691406 3.929688 14.691406 L 3.8125 14.691406 Z M 3.8125 15.125 L 3.9375 15.125 C 3.972656 15.125 4.003906 15.117188 4.023438 15.101562 C 4.042969 15.082031 4.054688 15.058594 4.054688 15.027344 C 4.054688 14.996094 4.042969 14.972656 4.019531 14.953125 C 4 14.933594 3.972656 14.925781 3.9375 14.925781 L 3.8125 14.925781 Z M 3.8125 15.125 "/>
<path style=" stroke:none;fill-rule:nonzero;fill:rgb(14.901961%,15.294118%,18.823529%);fill-opacity:1;" d="M 4.457031 15.1875 C 4.421875 15.1875 4.386719 15.183594 4.355469 15.167969 C 4.324219 15.152344 4.300781 15.128906 4.285156 15.097656 C 4.265625 15.066406 4.257812 15.027344 4.257812 14.980469 L 4.257812 14.636719 L 4.324219 14.636719 L 4.324219 14.980469 C 4.324219 15.03125 4.335938 15.070312 4.359375 15.097656 C 4.386719 15.117188 4.417969 15.128906 4.460938 15.128906 C 4.5 15.128906 4.535156 15.117188 4.558594 15.097656 C 4.582031 15.070312 4.597656 15.03125 4.597656 14.980469 L 4.597656 14.636719 L 4.660156 14.636719 L 4.660156 14.980469 C 4.660156 15.027344 4.652344 15.066406 4.632812 15.097656 C 4.617188 15.128906 4.589844 15.152344 4.558594 15.167969 C 4.53125 15.183594 4.496094 15.1875 4.457031 15.1875 Z M 4.457031 15.1875 "/>
<path style=" stroke:none;fill-rule:nonzero;fill:rgb(14.901961%,15.294118%,18.823529%);fill-opacity:1;" d="M 4.820312 15.179688 L 4.820312 14.636719 L 4.984375 14.636719 C 5.082031 14.636719 5.152344 14.660156 5.195312 14.710938 C 5.242188 14.757812 5.265625 14.824219 5.265625 14.910156 C 5.265625 14.992188 5.242188 15.058594 5.195312 15.109375 C 5.152344 15.15625 5.082031 15.179688 4.984375 15.179688 Z M 4.882812 15.125 L 4.984375 15.125 C 5.035156 15.125 5.078125 15.117188 5.109375 15.101562 C 5.140625 15.082031 5.164062 15.058594 5.175781 15.023438 C 5.191406 14.992188 5.199219 14.953125 5.199219 14.910156 C 5.199219 14.863281 5.191406 14.824219 5.175781 14.792969 C 5.164062 14.757812 5.140625 14.734375 5.109375 14.71875 C 5.078125 14.699219 5.035156 14.691406 4.984375 14.691406 L 4.882812 14.691406 Z M 4.882812 15.125 "/>
<path style=" stroke:none;fill-rule:nonzero;fill:rgb(14.901961%,15.294118%,18.823529%);fill-opacity:1;" d="M 5.40625 15.179688 L 5.40625 14.636719 L 5.574219 14.636719 C 5.667969 14.636719 5.738281 14.660156 5.785156 14.710938 C 5.832031 14.757812 5.851562 14.824219 5.851562 14.910156 C 5.851562 14.992188 5.832031 15.058594 5.785156 15.109375 C 5.738281 15.15625 5.667969 15.179688 5.574219 15.179688 Z M 5.472656 15.125 L 5.570312 15.125 C 5.625 15.125 5.667969 15.117188 5.699219 15.101562 C 5.730469 15.082031 5.75 15.058594 5.765625 15.023438 C 5.777344 14.992188 5.785156 14.953125 5.785156 14.910156 C 5.785156 14.863281 5.777344 14.824219 5.765625 14.792969 C 5.75 14.757812 5.730469 14.734375 5.699219 14.71875 C 5.667969 14.699219 5.625 14.691406 5.570312 14.691406 L 5.472656 14.691406 Z M 5.472656 15.125 "/>
<path style=" stroke:none;fill-rule:nonzero;fill:rgb(14.901961%,15.294118%,18.823529%);fill-opacity:1;" d="M 6.128906 15.179688 L 6.128906 14.972656 L 5.953125 14.636719 L 6.027344 14.636719 L 6.164062 14.910156 L 6.296875 14.636719 L 6.371094 14.636719 L 6.195312 14.972656 L 6.195312 15.179688 Z M 6.128906 15.179688 "/>
<path style=" stroke:none;fill-rule:nonzero;fill:rgb(14.901961%,15.294118%,18.823529%);fill-opacity:1;" d="M 6.746094 15.179688 L 6.746094 14.636719 L 7.074219 14.636719 L 7.074219 14.6875 L 6.808594 14.6875 L 6.808594 14.882812 L 7.035156 14.882812 L 7.035156 14.933594 L 6.808594 14.933594 L 6.808594 15.179688 Z M 6.746094 15.179688 "/>
<path style=" stroke:none;fill-rule:nonzero;fill:rgb(14.901961%,15.294118%,18.823529%);fill-opacity:1;" d="M 7.453125 15.1875 C 7.398438 15.1875 7.351562 15.179688 7.3125 15.15625 C 7.273438 15.128906 7.242188 15.097656 7.21875 15.054688 C 7.195312 15.011719 7.183594 14.964844 7.183594 14.90625 C 7.183594 14.851562 7.195312 14.804688 7.21875 14.761719 C 7.242188 14.71875 7.273438 14.6875 7.3125 14.664062 C 7.351562 14.636719 7.398438 14.625 7.453125 14.625 C 7.507812 14.625 7.554688 14.636719 7.59375 14.664062 C 7.636719 14.6875 7.667969 14.71875 7.6875 14.761719 C 7.710938 14.804688 7.722656 14.851562 7.722656 14.90625 C 7.722656 14.964844 7.710938 15.011719 7.6875 15.054688 C 7.667969 15.097656 7.636719 15.128906 7.59375 15.15625 C 7.554688 15.179688 7.507812 15.1875 7.453125 15.1875 Z M 7.453125 15.132812 C 7.492188 15.132812 7.527344 15.125 7.558594 15.105469 C 7.589844 15.085938 7.613281 15.0625 7.628906 15.027344 C 7.648438 14.992188 7.65625 14.953125 7.65625 14.90625 C 7.65625 14.859375 7.648438 14.820312 7.628906 14.789062 C 7.613281 14.753906 7.589844 14.730469 7.558594 14.710938 C 7.527344 14.695312 7.492188 14.683594 7.453125 14.683594 C 7.414062 14.683594 7.378906 14.695312 7.347656 14.710938 C 7.316406 14.730469 7.292969 14.753906 7.277344 14.789062 C 7.261719 14.820312 7.253906 14.859375 7.253906 14.90625 C 7.253906 14.953125 7.261719 14.992188 7.277344 15.027344 C 7.292969 15.0625 7.316406 15.085938 7.347656 15.105469 C 7.378906 15.125 7.414062 15.132812 7.453125 15.132812 Z M 7.453125 15.132812 "/>
<path style=" stroke:none;fill-rule:nonzero;fill:rgb(14.901961%,15.294118%,18.823529%);fill-opacity:1;" d="M 7.863281 15.179688 L 7.863281 14.636719 L 8.039062 14.636719 C 8.082031 14.636719 8.117188 14.644531 8.144531 14.65625 C 8.167969 14.671875 8.1875 14.691406 8.203125 14.714844 C 8.214844 14.738281 8.222656 14.765625 8.222656 14.792969 C 8.222656 14.828125 8.210938 14.859375 8.195312 14.886719 C 8.175781 14.914062 8.148438 14.933594 8.109375 14.945312 L 8.226562 15.179688 L 8.152344 15.179688 L 8.039062 14.957031 L 7.929688 14.957031 L 7.929688 15.179688 Z M 7.929688 14.902344 L 8.035156 14.902344 C 8.078125 14.902344 8.105469 14.894531 8.125 14.875 C 8.144531 14.855469 8.15625 14.828125 8.15625 14.796875 C 8.15625 14.765625 8.144531 14.738281 8.125 14.71875 C 8.105469 14.699219 8.078125 14.691406 8.035156 14.691406 L 7.929688 14.691406 Z M 7.929688 14.902344 "/>
<path style=" stroke:none;fill-rule:nonzero;fill:rgb(14.901961%,15.294118%,18.823529%);fill-opacity:1;" d="M 8.625 15.179688 L 8.625 14.636719 L 8.6875 14.636719 L 8.6875 15.128906 L 8.941406 15.128906 L 8.941406 15.179688 Z M 8.625 15.179688 "/>
<path style=" stroke:none;fill-rule:nonzero;fill:rgb(14.901961%,15.294118%,18.823529%);fill-opacity:1;" d="M 9.078125 15.179688 L 9.078125 14.636719 L 9.144531 14.636719 L 9.144531 15.179688 Z M 9.078125 15.179688 "/>
<path style=" stroke:none;fill-rule:nonzero;fill:rgb(14.901961%,15.294118%,18.823529%);fill-opacity:1;" d="M 9.46875 15.179688 L 9.265625 14.636719 L 9.335938 14.636719 L 9.507812 15.109375 L 9.683594 14.636719 L 9.75 14.636719 L 9.546875 15.179688 Z M 9.46875 15.179688 "/>
<path style=" stroke:none;fill-rule:nonzero;fill:rgb(14.901961%,15.294118%,18.823529%);fill-opacity:1;" d="M 9.871094 15.179688 L 9.871094 14.636719 L 9.9375 14.636719 L 9.9375 15.179688 Z M 9.871094 15.179688 "/>
<path style=" stroke:none;fill-rule:nonzero;fill:rgb(14.901961%,15.294118%,18.823529%);fill-opacity:1;" d="M 10.097656 15.179688 L 10.097656 14.636719 L 10.164062 14.636719 L 10.457031 15.070312 L 10.457031 14.636719 L 10.519531 14.636719 L 10.519531 15.179688 L 10.457031 15.179688 L 10.164062 14.742188 L 10.164062 15.179688 Z M 10.097656 15.179688 "/>
<path style=" stroke:none;fill-rule:nonzero;fill:rgb(14.901961%,15.294118%,18.823529%);fill-opacity:1;" d="M 10.917969 15.1875 C 10.863281 15.1875 10.820312 15.179688 10.78125 15.15625 C 10.742188 15.128906 10.714844 15.097656 10.691406 15.054688 C 10.671875 15.011719 10.660156 14.964844 10.660156 14.910156 C 10.660156 14.851562 10.671875 14.804688 10.691406 14.761719 C 10.714844 14.71875 10.746094 14.6875 10.785156 14.664062 C 10.824219 14.636719 10.871094 14.625 10.925781 14.625 C 10.988281 14.625 11.039062 14.640625 11.078125 14.671875 C 11.117188 14.699219 11.144531 14.742188 11.15625 14.792969 L 11.082031 14.792969 C 11.074219 14.761719 11.058594 14.734375 11.03125 14.714844 C 11.003906 14.695312 10.96875 14.6875 10.925781 14.6875 C 10.886719 14.6875 10.851562 14.695312 10.820312 14.714844 C 10.792969 14.730469 10.769531 14.757812 10.753906 14.789062 C 10.738281 14.824219 10.730469 14.863281 10.730469 14.910156 C 10.730469 14.953125 10.738281 14.992188 10.753906 15.027344 C 10.769531 15.0625 10.789062 15.085938 10.820312 15.105469 C 10.847656 15.121094 10.878906 15.128906 10.917969 15.128906 C 10.976562 15.128906 11.019531 15.113281 11.050781 15.078125 C 11.078125 15.046875 11.097656 15 11.101562 14.941406 L 10.945312 14.941406 L 10.945312 14.890625 L 11.167969 14.890625 L 11.167969 15.179688 L 11.109375 15.179688 L 11.101562 15.089844 C 11.082031 15.121094 11.058594 15.148438 11.03125 15.164062 C 11 15.179688 10.964844 15.1875 10.917969 15.1875 Z M 10.917969 15.1875 "/>
<path style=" stroke:none;fill-rule:nonzero;fill:rgb(14.901961%,15.294118%,18.823529%);fill-opacity:1;" d="M 11.570312 15.179688 L 11.570312 14.636719 L 11.746094 14.636719 C 11.789062 14.636719 11.824219 14.644531 11.851562 14.65625 C 11.878906 14.671875 11.898438 14.691406 11.910156 14.714844 C 11.921875 14.738281 11.929688 14.765625 11.929688 14.792969 C 11.929688 14.828125 11.917969 14.859375 11.902344 14.886719 C 11.882812 14.914062 11.855469 14.933594 11.816406 14.945312 L 11.9375 15.179688 L 11.859375 15.179688 L 11.746094 14.957031 L 11.636719 14.957031 L 11.636719 15.179688 Z M 11.636719 14.902344 L 11.742188 14.902344 C 11.785156 14.902344 11.816406 14.894531 11.832031 14.875 C 11.851562 14.855469 11.863281 14.828125 11.863281 14.796875 C 11.863281 14.765625 11.851562 14.738281 11.832031 14.71875 C 11.816406 14.699219 11.785156 14.691406 11.742188 14.691406 L 11.636719 14.691406 Z M 11.636719 14.902344 "/>
<path style=" stroke:none;fill-rule:nonzero;fill:rgb(14.901961%,15.294118%,18.823529%);fill-opacity:1;" d="M 12.078125 15.179688 L 12.078125 14.636719 L 12.414062 14.636719 L 12.414062 14.6875 L 12.144531 14.6875 L 12.144531 14.878906 L 12.390625 14.878906 L 12.390625 14.933594 L 12.144531 14.933594 L 12.144531 15.125 L 12.414062 15.125 L 12.414062 15.179688 Z M 12.078125 15.179688 "/>
<path style=" stroke:none;fill-rule:nonzero;fill:rgb(14.901961%,15.294118%,18.823529%);fill-opacity:1;" d="M 12.5625 15.179688 L 12.5625 14.636719 L 12.628906 14.636719 L 12.917969 15.070312 L 12.917969 14.636719 L 12.984375 14.636719 L 12.984375 15.179688 L 12.917969 15.179688 L 12.628906 14.742188 L 12.628906 15.179688 Z M 12.5625 15.179688 "/>
<path style=" stroke:none;fill-rule:nonzero;fill:rgb(14.901961%,15.294118%,18.823529%);fill-opacity:1;" d="M 13.273438 15.179688 L 13.273438 14.6875 L 13.113281 14.6875 L 13.113281 14.636719 L 13.503906 14.636719 L 13.503906 14.6875 L 13.339844 14.6875 L 13.339844 15.179688 Z M 13.273438 15.179688 "/>
<path style=" stroke:none;fill-rule:nonzero;fill:rgb(14.901961%,15.294118%,18.823529%);fill-opacity:1;" d="M 13.59375 15.179688 L 13.796875 14.636719 L 13.863281 14.636719 L 14.066406 15.179688 L 13.996094 15.179688 L 13.945312 15.039062 L 13.714844 15.039062 L 13.664062 15.179688 Z M 13.734375 14.988281 L 13.925781 14.988281 L 13.832031 14.71875 Z M 13.734375 14.988281 "/>
<path style=" stroke:none;fill-rule:nonzero;fill:rgb(14.901961%,15.294118%,18.823529%);fill-opacity:1;" d="M 14.191406 15.179688 L 14.191406 14.636719 L 14.257812 14.636719 L 14.257812 15.128906 L 14.511719 15.128906 L 14.511719 15.179688 Z M 14.191406 15.179688 "/>
<path style=" stroke:none;fill-rule:nonzero;fill:rgb(14.901961%,15.294118%,18.823529%);fill-opacity:1;" d="M 2.136719 13.796875 C 2.128906 13.796875 2.121094 13.796875 2.117188 13.789062 C 2.109375 13.785156 2.109375 13.777344 2.109375 13.769531 L 2.109375 12.195312 C 2.109375 12.1875 2.109375 12.179688 2.117188 12.175781 C 2.121094 12.167969 2.128906 12.167969 2.136719 12.167969 L 2.351562 12.167969 C 2.359375 12.167969 2.367188 12.167969 2.371094 12.175781 C 2.375 12.179688 2.378906 12.1875 2.378906 12.195312 L 2.378906 13.554688 C 2.378906 13.5625 2.382812 13.566406 2.390625 13.566406 L 3.03125 13.566406 C 3.039062 13.566406 3.046875 13.566406 3.050781 13.574219 C 3.058594 13.578125 3.0625 13.585938 3.0625 13.59375 L 3.0625 13.769531 C 3.0625 13.777344 3.058594 13.785156 3.050781 13.789062 C 3.046875 13.796875 3.039062 13.796875 3.03125 13.796875 Z M 2.136719 13.796875 "/>
<path style=" stroke:none;fill-rule:nonzero;fill:rgb(14.901961%,15.294118%,18.823529%);fill-opacity:1;" d="M 3.320312 13.796875 C 3.3125 13.796875 3.304688 13.796875 3.300781 13.789062 C 3.296875 13.785156 3.292969 13.777344 3.292969 13.769531 L 3.292969 12.195312 C 3.292969 12.1875 3.296875 12.179688 3.300781 12.175781 C 3.304688 12.167969 3.3125 12.167969 3.320312 12.167969 L 3.535156 12.167969 C 3.542969 12.167969 3.550781 12.167969 3.554688 12.175781 C 3.5625 12.179688 3.5625 12.1875 3.5625 12.195312 L 3.5625 13.769531 C 3.5625 13.777344 3.5625 13.785156 3.554688 13.789062 C 3.550781 13.796875 3.542969 13.796875 3.535156 13.796875 Z M 3.320312 13.796875 "/>
<path style=" stroke:none;fill-rule:nonzero;fill:rgb(14.901961%,15.294118%,18.823529%);fill-opacity:1;" d="M 4.257812 13.796875 C 4.242188 13.796875 4.230469 13.789062 4.226562 13.777344 L 3.8125 12.195312 L 3.8125 12.1875 C 3.8125 12.171875 3.820312 12.167969 3.839844 12.167969 L 4.070312 12.167969 C 4.085938 12.167969 4.09375 12.175781 4.097656 12.1875 L 4.375 13.363281 C 4.375 13.367188 4.378906 13.371094 4.378906 13.371094 C 4.382812 13.371094 4.386719 13.367188 4.390625 13.363281 L 4.65625 12.191406 C 4.660156 12.175781 4.671875 12.167969 4.6875 12.167969 L 4.914062 12.167969 C 4.933594 12.167969 4.941406 12.175781 4.9375 12.195312 L 4.523438 13.777344 C 4.519531 13.789062 4.507812 13.796875 4.492188 13.796875 Z M 4.257812 13.796875 "/>
<path style=" stroke:none;fill-rule:nonzero;fill:rgb(14.901961%,15.294118%,18.823529%);fill-opacity:1;" d="M 5.214844 13.796875 C 5.207031 13.796875 5.199219 13.796875 5.195312 13.789062 C 5.191406 13.785156 5.1875 13.777344 5.1875 13.769531 L 5.1875 12.195312 C 5.1875 12.1875 5.191406 12.179688 5.195312 12.175781 C 5.199219 12.167969 5.207031 12.167969 5.214844 12.167969 L 5.429688 12.167969 C 5.4375 12.167969 5.445312 12.167969 5.449219 12.175781 C 5.457031 12.179688 5.457031 12.1875 5.457031 12.195312 L 5.457031 13.769531 C 5.457031 13.777344 5.457031 13.785156 5.449219 13.789062 C 5.445312 13.796875 5.4375 13.796875 5.429688 13.796875 Z M 5.214844 13.796875 "/>
<path style=" stroke:none;fill-rule:nonzero;fill:rgb(14.901961%,15.294118%,18.823529%);fill-opacity:1;" d="M 6.59375 12.195312 C 6.59375 12.1875 6.597656 12.179688 6.601562 12.175781 C 6.605469 12.167969 6.613281 12.167969 6.621094 12.167969 L 6.835938 12.167969 C 6.84375 12.167969 6.851562 12.167969 6.855469 12.175781 C 6.859375 12.179688 6.863281 12.1875 6.863281 12.195312 L 6.863281 13.769531 C 6.863281 13.777344 6.859375 13.785156 6.855469 13.789062 C 6.851562 13.796875 6.84375 13.796875 6.835938 13.796875 L 6.609375 13.796875 C 6.597656 13.796875 6.585938 13.792969 6.578125 13.777344 L 6.070312 12.734375 C 6.066406 12.726562 6.0625 12.726562 6.058594 12.726562 C 6.054688 12.726562 6.054688 12.730469 6.054688 12.738281 L 6.058594 13.769531 C 6.058594 13.777344 6.054688 13.785156 6.050781 13.789062 C 6.042969 13.796875 6.039062 13.796875 6.027344 13.796875 L 5.816406 13.796875 C 5.804688 13.796875 5.800781 13.796875 5.792969 13.789062 C 5.789062 13.785156 5.785156 13.777344 5.785156 13.769531 L 5.785156 12.195312 C 5.785156 12.1875 5.789062 12.179688 5.792969 12.175781 C 5.800781 12.167969 5.804688 12.167969 5.816406 12.167969 L 6.039062 12.167969 C 6.054688 12.167969 6.066406 12.171875 6.070312 12.1875 L 6.582031 13.234375 C 6.585938 13.242188 6.585938 13.242188 6.589844 13.242188 C 6.59375 13.242188 6.597656 13.238281 6.597656 13.230469 Z M 6.59375 12.195312 "/>
<path style=" stroke:none;fill-rule:nonzero;fill:rgb(14.901961%,15.294118%,18.823529%);fill-opacity:1;" d="M 7.671875 13.816406 C 7.570312 13.816406 7.480469 13.796875 7.402344 13.757812 C 7.324219 13.714844 7.265625 13.660156 7.222656 13.585938 C 7.179688 13.511719 7.160156 13.425781 7.160156 13.328125 L 7.160156 12.632812 C 7.160156 12.539062 7.179688 12.453125 7.222656 12.378906 C 7.265625 12.304688 7.324219 12.25 7.402344 12.207031 C 7.480469 12.167969 7.570312 12.148438 7.671875 12.148438 C 7.769531 12.148438 7.859375 12.167969 7.9375 12.207031 C 8.015625 12.246094 8.074219 12.300781 8.117188 12.375 C 8.160156 12.445312 8.183594 12.527344 8.183594 12.617188 L 8.183594 12.671875 C 8.183594 12.679688 8.179688 12.6875 8.175781 12.691406 C 8.167969 12.695312 8.164062 12.699219 8.15625 12.699219 L 7.941406 12.699219 C 7.933594 12.699219 7.925781 12.695312 7.921875 12.691406 C 7.917969 12.6875 7.914062 12.679688 7.914062 12.671875 L 7.914062 12.617188 C 7.914062 12.546875 7.890625 12.492188 7.847656 12.449219 C 7.800781 12.402344 7.742188 12.382812 7.671875 12.382812 C 7.597656 12.382812 7.539062 12.40625 7.496094 12.449219 C 7.453125 12.496094 7.429688 12.554688 7.429688 12.628906 L 7.429688 13.335938 C 7.429688 13.410156 7.453125 13.46875 7.5 13.515625 C 7.542969 13.5625 7.605469 13.582031 7.675781 13.582031 C 7.75 13.582031 7.804688 13.5625 7.847656 13.523438 C 7.890625 13.480469 7.914062 13.425781 7.914062 13.351562 L 7.914062 13.167969 C 7.914062 13.160156 7.910156 13.15625 7.902344 13.15625 L 7.6875 13.15625 C 7.679688 13.15625 7.675781 13.15625 7.667969 13.148438 C 7.664062 13.144531 7.660156 13.136719 7.660156 13.128906 L 7.660156 12.957031 C 7.660156 12.953125 7.664062 12.945312 7.667969 12.941406 C 7.675781 12.933594 7.679688 12.929688 7.6875 12.929688 L 8.15625 12.929688 C 8.164062 12.929688 8.167969 12.933594 8.175781 12.941406 C 8.179688 12.945312 8.183594 12.953125 8.183594 12.957031 L 8.183594 13.324219 C 8.183594 13.476562 8.136719 13.597656 8.042969 13.683594 C 7.949219 13.773438 7.824219 13.816406 7.671875 13.816406 Z M 7.671875 13.816406 "/>
<path style=" stroke:none;fill-rule:nonzero;fill:rgb(14.901961%,15.294118%,18.823529%);fill-opacity:1;" d="M 10 13.351562 C 10 13.496094 9.953125 13.605469 9.863281 13.683594 C 9.773438 13.761719 9.652344 13.796875 9.507812 13.796875 L 9.011719 13.796875 C 9.003906 13.796875 8.996094 13.796875 8.992188 13.789062 C 8.984375 13.785156 8.984375 13.777344 8.984375 13.769531 L 8.984375 12.195312 C 8.984375 12.1875 8.984375 12.179688 8.992188 12.175781 C 8.996094 12.167969 9.003906 12.167969 9.011719 12.167969 L 9.476562 12.167969 C 9.636719 12.167969 9.757812 12.203125 9.847656 12.277344 C 9.933594 12.351562 9.976562 12.460938 9.976562 12.605469 C 9.976562 12.765625 9.914062 12.878906 9.789062 12.949219 C 9.78125 12.953125 9.78125 12.957031 9.785156 12.960938 C 9.929688 13.039062 10 13.167969 10 13.351562 Z M 9.265625 12.398438 C 9.257812 12.398438 9.253906 12.402344 9.253906 12.410156 L 9.253906 12.84375 C 9.253906 12.851562 9.257812 12.855469 9.265625 12.855469 L 9.480469 12.855469 C 9.554688 12.855469 9.609375 12.835938 9.652344 12.796875 C 9.695312 12.757812 9.714844 12.703125 9.714844 12.628906 C 9.714844 12.558594 9.695312 12.5 9.652344 12.460938 C 9.609375 12.421875 9.554688 12.398438 9.480469 12.398438 Z M 9.496094 13.5625 C 9.570312 13.5625 9.625 13.539062 9.667969 13.496094 C 9.707031 13.453125 9.730469 13.394531 9.730469 13.316406 C 9.730469 13.238281 9.707031 13.175781 9.664062 13.132812 C 9.625 13.089844 9.566406 13.066406 9.496094 13.066406 L 9.265625 13.066406 C 9.257812 13.066406 9.253906 13.070312 9.253906 13.078125 L 9.253906 13.550781 C 9.253906 13.558594 9.257812 13.5625 9.265625 13.5625 Z M 9.496094 13.5625 "/>
<path style=" stroke:none;fill-rule:nonzero;fill:rgb(14.901961%,15.294118%,18.823529%);fill-opacity:1;" d="M 10.78125 13.816406 C 10.679688 13.816406 10.589844 13.796875 10.511719 13.753906 C 10.433594 13.710938 10.375 13.652344 10.332031 13.574219 C 10.289062 13.5 10.265625 13.410156 10.265625 13.308594 L 10.265625 12.195312 C 10.265625 12.1875 10.269531 12.179688 10.273438 12.175781 C 10.28125 12.167969 10.285156 12.167969 10.292969 12.167969 L 10.507812 12.167969 C 10.515625 12.167969 10.523438 12.167969 10.527344 12.175781 C 10.535156 12.179688 10.535156 12.1875 10.535156 12.195312 L 10.535156 13.324219 C 10.535156 13.402344 10.558594 13.464844 10.601562 13.511719 C 10.648438 13.558594 10.707031 13.582031 10.78125 13.582031 C 10.851562 13.582031 10.910156 13.558594 10.957031 13.511719 C 11.003906 13.464844 11.023438 13.402344 11.023438 13.324219 L 11.023438 12.195312 C 11.023438 12.1875 11.027344 12.179688 11.03125 12.175781 C 11.039062 12.167969 11.042969 12.167969 11.054688 12.167969 L 11.265625 12.167969 C 11.277344 12.167969 11.28125 12.167969 11.289062 12.175781 C 11.292969 12.179688 11.296875 12.1875 11.296875 12.195312 L 11.296875 13.308594 C 11.296875 13.410156 11.273438 13.5 11.230469 13.574219 C 11.1875 13.652344 11.128906 13.710938 11.050781 13.753906 C 10.972656 13.796875 10.882812 13.816406 10.78125 13.816406 Z M 10.78125 13.816406 "/>
<path style=" stroke:none;fill-rule:nonzero;fill:rgb(14.901961%,15.294118%,18.823529%);fill-opacity:1;" d="M 11.640625 13.796875 C 11.632812 13.796875 11.628906 13.796875 11.621094 13.789062 C 11.617188 13.785156 11.613281 13.777344 11.613281 13.769531 L 11.613281 12.195312 C 11.613281 12.1875 11.617188 12.179688 11.621094 12.175781 C 11.628906 12.167969 11.632812 12.167969 11.640625 12.167969 L 12.125 12.167969 C 12.277344 12.167969 12.398438 12.207031 12.488281 12.292969 C 12.578125 12.375 12.625 12.488281 12.625 12.628906 L 12.625 13.335938 C 12.625 13.476562 12.578125 13.589844 12.488281 13.671875 C 12.398438 13.757812 12.277344 13.796875 12.125 13.796875 Z M 11.882812 13.554688 C 11.882812 13.5625 11.890625 13.566406 11.898438 13.566406 L 12.128906 13.5625 C 12.195312 13.5625 12.246094 13.539062 12.289062 13.496094 C 12.328125 13.449219 12.351562 13.386719 12.351562 13.304688 L 12.351562 12.660156 C 12.351562 12.578125 12.332031 12.515625 12.292969 12.46875 C 12.25 12.421875 12.195312 12.398438 12.128906 12.398438 L 11.898438 12.398438 C 11.890625 12.398438 11.882812 12.402344 11.882812 12.410156 Z M 11.882812 13.554688 "/>
<path style=" stroke:none;fill-rule:nonzero;fill:rgb(100%,56.862745%,30.196078%);fill-opacity:1;" d="M 12.945312 13.796875 C 12.9375 13.796875 12.933594 13.796875 12.925781 13.789062 C 12.921875 13.785156 12.917969 13.777344 12.917969 13.769531 L 12.917969 12.195312 C 12.917969 12.1875 12.921875 12.179688 12.925781 12.175781 C 12.933594 12.167969 12.9375 12.167969 12.945312 12.167969 L 13.429688 12.167969 C 13.582031 12.167969 13.703125 12.207031 13.792969 12.292969 C 13.882812 12.375 13.929688 12.488281 13.929688 12.628906 L 13.929688 13.335938 C 13.929688 13.476562 13.882812 13.589844 13.792969 13.671875 C 13.703125 13.757812 13.582031 13.796875 13.429688 13.796875 Z M 13.1875 13.554688 C 13.1875 13.5625 13.191406 13.566406 13.203125 13.566406 L 13.433594 13.5625 C 13.5 13.5625 13.550781 13.539062 13.59375 13.496094 C 13.632812 13.449219 13.65625 13.386719 13.65625 13.304688 L 13.65625 12.660156 C 13.65625 12.578125 13.636719 12.515625 13.597656 12.46875 C 13.554688 12.421875 13.5 12.398438 13.433594 12.398438 L 13.203125 12.398438 C 13.191406 12.398438 13.1875 12.402344 13.1875 12.410156 Z M 13.1875 13.554688 "/>
</g>
</svg>
